<svg xmlns="http://www.w3.org/2000/svg" xmlns:xlink="http://www.w3.org/1999/xlink" viewBox="0 0 240 240"><defs><style>.cls-1{fill:#237b3d;}.cls-2{fill:url(#linear-gradient);}.cls-3{fill:#a7a9ac;opacity:0.69;}.cls-4{fill:#bcbec0;}.cls-5{opacity:0.71;}.cls-6{opacity:0.88;}.cls-7{opacity:0.39;}.cls-8{opacity:0.76;}.cls-9{opacity:0.81;}.cls-10{opacity:0.65;}.cls-11{opacity:0.8;}.cls-12{fill:url(#linear-gradient-2);}.cls-13{fill:url(#linear-gradient-3);}.cls-14{fill:url(#linear-gradient-4);}.cls-15{fill:url(#linear-gradient-5);}.cls-16{fill:url(#linear-gradient-6);}.cls-17{fill:url(#linear-gradient-7);}.cls-18{fill:url(#linear-gradient-8);}.cls-19{fill:url(#linear-gradient-9);}</style><linearGradient id="linear-gradient" x1="26.35" y1="26.35" x2="213.65" y2="213.65" gradientUnits="userSpaceOnUse"><stop offset="0" stop-color="#38b34a" stop-opacity="0"/><stop offset="0.23" stop-color="#38b34a" stop-opacity="0.01"/><stop offset="0.31" stop-color="#39b34a" stop-opacity="0.05"/><stop offset="0.36" stop-color="#39b34a" stop-opacity="0.11"/><stop offset="0.41" stop-color="#3ab44a" stop-opacity="0.21"/><stop offset="0.45" stop-color="#3cb44a" stop-opacity="0.33"/><stop offset="0.49" stop-color="#3db549" stop-opacity="0.48"/><stop offset="0.52" stop-color="#3fb549" stop-opacity="0.65"/><stop offset="0.54" stop-color="#41b649" stop-opacity="0.8"/><stop offset="0.56" stop-color="#3fb549" stop-opacity="0.65"/><stop offset="0.59" stop-color="#3db549" stop-opacity="0.48"/><stop offset="0.62" stop-color="#3cb44a" stop-opacity="0.33"/><stop offset="0.65" stop-color="#3ab44a" stop-opacity="0.21"/><stop offset="0.69" stop-color="#39b34a" stop-opacity="0.11"/><stop offset="0.74" stop-color="#39b34a" stop-opacity="0.05"/><stop offset="0.81" stop-color="#38b34a" stop-opacity="0.01"/><stop offset="1" stop-color="#38b34a" stop-opacity="0"/></linearGradient><linearGradient id="linear-gradient-2" x1="-79.16" y1="-48.31" x2="345.64" y2="293.23" gradientUnits="userSpaceOnUse"><stop offset="0" stop-color="#6a5221"/><stop offset="0.13" stop-color="#946b25"/><stop offset="0.31" stop-color="#c6882a"/><stop offset="0.39" stop-color="#da942c"/><stop offset="0.45" stop-color="#e79b2c"/><stop offset="0.54" stop-color="#f5a32d"/><stop offset="0.61" stop-color="#faa62d"/><stop offset="0.71" stop-color="#cf9830"/><stop offset="0.92" stop-color="#637638"/><stop offset="1" stop-color="#39693b"/></linearGradient><linearGradient id="linear-gradient-3" x1="60.55" y1="65.57" x2="81.62" y2="80.68" gradientUnits="userSpaceOnUse"><stop offset="0.01" stop-color="#faf399"/><stop offset="0.19" stop-color="#f4ee6b"/><stop offset="0.44" stop-color="#ede830"/><stop offset="0.51" stop-color="#eee938"/><stop offset="0.61" stop-color="#f0eb4f"/><stop offset="0.73" stop-color="#f3ef75"/><stop offset="0.87" stop-color="#f8f5a8"/><stop offset="1" stop-color="#fcfada"/></linearGradient><linearGradient id="linear-gradient-4" x1="-46.35" y1="-89.11" x2="378.44" y2="252.44" xlink:href="#linear-gradient-2"/><linearGradient id="linear-gradient-5" x1="143.04" y1="68.65" x2="168.04" y2="81.43" xlink:href="#linear-gradient-3"/><linearGradient id="linear-gradient-6" x1="-119.95" y1="2.43" x2="304.84" y2="343.98" xlink:href="#linear-gradient-2"/><linearGradient id="linear-gradient-7" x1="54.96" y1="150.74" x2="78.78" y2="162.19" xlink:href="#linear-gradient-3"/><linearGradient id="linear-gradient-8" x1="-87.15" y1="-38.37" x2="337.65" y2="303.18" xlink:href="#linear-gradient-2"/><linearGradient id="linear-gradient-9" x1="149.86" y1="157.8" x2="166.65" y2="163.4" xlink:href="#linear-gradient-3"/></defs><title>calcAppBefore</title><g id="Layer_2" data-name="Layer 2"><g id="Layer_1-2" data-name="Layer 1"><polygon class="cls-1" points="187.3 240 52.7 240 0 187.3 0 52.7 52.7 0 187.3 0 240 52.7 240 187.3 187.3 240"/><polygon class="cls-2" points="187.3 240 52.7 240 0 187.3 0 52.7 52.7 0 187.3 0 240 52.7 240 187.3 187.3 240"/><path class="cls-3" d="M56.84,230,10,183.16V56.84L56.84,10H183.16L230,56.84V183.16L183.16,230Zm123-8L222,179.84V60.16L179.84,18H60.16L18,60.16V179.84L60.16,222Z"/><circle class="cls-4" cx="78.23" cy="78.23" r="33.23"/><polygon class="cls-5" points="74.36 74.41 65.24 74.41 65.24 76.22 71.97 76.22 74.36 74.41"/><polygon class="cls-6" points="79.66 91.21 82.05 91.21 82.05 82.1 79.66 83.91 79.66 91.21"/><polygon class="cls-5" points="91.21 74.41 82.05 74.41 79.66 76.22 88.83 76.22 91.21 74.41"/><polyline class="cls-6" points="88.83 76.22 88.83 82.1 91.21 82.1 91.21 74.41"/><polygon class="cls-6" points="79.66 67.06 79.66 76.22 82.05 74.41 82.05 65.24 79.66 67.06"/><polygon class="cls-5" points="82.05 65.24 74.36 65.24 74.36 67.06 79.66 67.06 82.05 65.24"/><polygon class="cls-7" points="79.66 76.22 79.66 67.06 74.36 67.06 74.36 74.41 71.97 76.22 65.24 76.22 65.24 82.1 74.36 82.1 74.36 91.21 79.66 91.21 79.66 83.91 82.05 82.1 88.83 82.1 88.83 76.22 79.66 76.22"/><circle class="cls-4" cx="161.77" cy="78.23" r="33.23"/><polygon class="cls-5" points="177.42 75.28 145.21 75.28 145.21 77.1 175.03 77.1 177.42 75.28"/><polygon class="cls-6" points="175.03 77.1 175.03 81.78 177.42 81.78 177.42 75.28 175.03 77.1"/><rect class="cls-7" x="145.21" y="77.1" width="29.82" height="4.68"/><circle class="cls-4" cx="78.23" cy="161.77" r="33.23"/><polygon class="cls-5" points="81.37 151.22 75 151.22 75.24 153.04 78.98 153.04 81.37 151.22"/><path class="cls-8" d="M80.13,159.17a25.36,25.36,0,0,0,.72-3.6l.52-4.35L79,153l-.52,4.34a24.83,24.83,0,0,1-.72,3.6Z"/><path class="cls-9" d="M87.41,155.57l-4,1.9c-.42.19-1,.51-1.84.95q-.34.2-1.44.75L77.74,161q1.1-.54,1.44-.75c.81-.44,1.42-.75,1.84-.95l4-1.9Z"/><polygon class="cls-6" points="85.02 157.38 86.61 162.22 89.4 161.64 87.41 155.57 85.02 157.38"/><path class="cls-10" d="M74.23,170.25l-.76,1.36a4.44,4.44,0,0,0,1,.71,45.69,45.69,0,0,0,3.65-7.14,11.37,11.37,0,0,1-2,.74C75.4,167.69,74.67,169.25,74.23,170.25Z"/><path class="cls-11" d="M73.88,161a19.51,19.51,0,0,0,2.39-1.81,15.6,15.6,0,0,0-3.07-1.76l-4.07-1.84-.86,2.51,2.47,1.12C71.17,159.39,72.21,160,73.88,161Z"/><path class="cls-11" d="M79,164.7a21.48,21.48,0,0,1,2.56,2.3l3,3.24,2.4-1.8-3-3.32c-.26-.28-2.11-1.89-2.59-2.24"/><path class="cls-7" d="M85,162.56l1.65-.34L85,157.38l-4,1.9c-.42.2-1,.51-1.84.95q-.34.21-1.44.75a24.83,24.83,0,0,0,.72-3.6L79,153H75.24l.34,2.53c.09.79.33,2,.69,3.6A24.66,24.66,0,0,1,73.88,161c-1.67-1-2.71-1.59-3.14-1.78l-2.47-1.12-1.21,3.56,4.46.72c1.44.27,2.6.44,3.48.52a23,23,0,0,0-2.64,2.3l-3.23,3.26,4.34,3.17.76-1.36c.25-.4,1.17-2.56,1.92-4.33a9.29,9.29,0,0,0,2-.74c.69,1.61,1.19,2.7,1.5,3.26l2.13,3.88,2.78-2.08-3-3.24A21.48,21.48,0,0,0,79,164.7c.65-.5,2.07-1.55,2.39-1.82A24.87,24.87,0,0,0,85,162.56Z"/><circle class="cls-4" cx="161.77" cy="161.77" r="33.23"/><polygon class="cls-5" points="169.23 142.08 163.83 142.08 163.39 143.89 166.84 143.89 169.23 142.08"/><polygon class="cls-6" points="166.84 143.89 157.71 181.47 159.66 181.47 169.23 142.08 166.84 143.89"/><polygon class="cls-7" points="163.39 143.89 154.31 181.47 157.71 181.47 166.84 143.89 163.39 143.89"/><circle class="cls-12" cx="78.23" cy="78.23" r="33.23"/><path class="cls-13" d="M65.24,74.41h9.12V65.24h7.69v9.17h9.16V82.1H82.05v9.11H74.36V82.1H65.24Z"/><circle class="cls-14" cx="161.77" cy="78.23" r="33.23"/><path class="cls-15" d="M145.67,75h32.21v6.5H145.67Z"/><circle class="cls-16" cx="78.23" cy="161.77" r="33.23"/><path class="cls-17" d="M75,151.22h6.37l-.52,4.35a25.36,25.36,0,0,1-.72,3.6q1.09-.55,1.44-.75c.8-.44,1.42-.76,1.84-.95l4-1.9,2,6.07-4.44.92a24.87,24.87,0,0,1-3.59.32,22.3,22.3,0,0,1,2.56,2.3l3,3.26-5.18,3.88-2.13-3.88c-.31-.56-.81-1.65-1.5-3.26a35.21,35.21,0,0,1-1.49,3.26l-2.16,3.88-5.33-3.88,3.22-3.26a24,24,0,0,1,2.65-2.3c-.88-.08-2-.25-3.48-.52l-4.46-.72,2.07-6.07,4,1.81c.43.19,1.47.79,3.14,1.79-.36-1.62-.6-2.81-.69-3.6Z"/><circle class="cls-18" cx="161.77" cy="161.77" r="33.23"/><path class="cls-19" d="M163.83,142.08h5.4l-9.57,39.39h-5.35Z"/></g></g></svg>