<svg xmlns="http://www.w3.org/2000/svg" viewBox="0 0 64 64"><defs><style>.cls-1{fill:#1b6935;}.cls-2{fill:#a7a9ac;opacity:0.69;}</style></defs><title>closeButton_1</title><g id="Layer_2" data-name="Layer 2"><g id="Layer_1-2" data-name="Layer 1"><circle class="cls-1" cx="32" cy="32" r="32"/><polygon class="cls-2" points="43.11 47.06 31.98 35.94 20.86 47.06 16.95 43.15 28.07 32.02 16.9 20.85 20.81 16.94 31.98 28.11 43.15 16.94 47.07 20.86 35.9 32.02 47.02 43.15 43.11 47.06"/><path class="cls-2" d="M32,64A32,32,0,0,1,9.36,9.37,32,32,0,0,1,54.61,54.63,31.8,31.8,0,0,1,32,64ZM50.53,50.54A26.23,26.23,0,1,0,32,58.22,26.25,26.25,0,0,0,50.53,50.54Z"/></g></g></svg>