<svg xmlns="http://www.w3.org/2000/svg" viewBox="0 0 10.77 10.77"><defs><style>.cls-1{fill:#787979;}</style></defs><g id="Layer_2" data-name="Layer 2"><g id="Layer_1-2" data-name="Layer 1"><path class="cls-1" d="M10.27,0H.5A.5.5,0,0,0,0,.5v9.77a.5.5,0,0,0,.5.5h9.77a.5.5,0,0,0,.5-.5V.5A.5.5,0,0,0,10.27,0Zm-.5,1V9.77H1V1Z"/><path class="cls-1" d="M6,5.39l2.79-2.8A.45.45,0,1,0,8.18,2L5.39,4.75,2.59,2A.45.45,0,0,0,2,2.59l2.79,2.8L2,8.18a.45.45,0,1,0,.63.63L5.39,6,8.18,8.81a.45.45,0,1,0,.63-.63Z"/></g></g></svg>