<svg xmlns="http://www.w3.org/2000/svg" viewBox="0 0 10.77 8.78"><defs><style>.cls-1{fill:#787979;}</style></defs><g id="Layer_2" data-name="Layer 2"><g id="Layer_1-2" data-name="Layer 1"><path class="cls-1" d="M10.27,1H.5A.5.5,0,0,1,0,.5.5.5,0,0,1,.5,0h9.77a.5.5,0,0,1,.5.5A.5.5,0,0,1,10.27,1Z"/><path class="cls-1" d="M10.27,4.89H.5a.5.5,0,0,1-.5-.5.5.5,0,0,1,.5-.5h9.77a.5.5,0,0,1,.5.5A.5.5,0,0,1,10.27,4.89Z"/><path class="cls-1" d="M10.27,8.78H.5a.5.5,0,0,1-.5-.5.5.5,0,0,1,.5-.5h9.77a.5.5,0,0,1,.5.5A.5.5,0,0,1,10.27,8.78Z"/></g></g></svg>