<svg xmlns="http://www.w3.org/2000/svg" viewBox="0 0 10.77 10.77"><defs><style>.cls-1{fill:#787979;}</style></defs><g id="Layer_2" data-name="Layer 2"><g id="Layer_1-2" data-name="Layer 1"><path class="cls-1" d="M10.27,1H.5A.5.5,0,0,1,0,.5.5.5,0,0,1,.5,0h9.77a.5.5,0,0,1,.5.5A.5.5,0,0,1,10.27,1Z"/><path class="cls-1" d="M10.27,7.51H.5A.5.5,0,0,1,0,7a.5.5,0,0,1,.5-.5h9.77a.5.5,0,0,1,.5.5A.5.5,0,0,1,10.27,7.51Z"/><path class="cls-1" d="M10.27,10.77H.5a.5.5,0,0,1-.5-.5.5.5,0,0,1,.5-.5h9.77a.5.5,0,0,1,.5.5A.5.5,0,0,1,10.27,10.77Z"/><path class="cls-1" d="M10.27,4.26H.5a.5.5,0,0,1-.5-.5.5.5,0,0,1,.5-.5h9.77a.5.5,0,0,1,.5.5A.5.5,0,0,1,10.27,4.26Z"/></g></g></svg>