<svg xmlns="http://www.w3.org/2000/svg" viewBox="0 0 666.72 81.29"><defs><style>.cls-1{fill:#787878;}.cls-2{fill:#d1d1d1;}</style></defs><g id="Layer_2" data-name="Layer 2"><g id="Layer_1-2" data-name="Layer 1"><path class="cls-1" d="M0,76.42c8.59,0,10.13-2.18,10.13-15V20.9c0-12.82-1.54-15-10.13-15V3.21L19.23,0V43.47c3.59-4.36,9.36-9.24,16.8-9.24,11.8,0,15.77,8.21,15.77,19.11v8.08c0,12.82,1.67,15,10.26,15v2.69H33.59V76.42c8.08,0,9.11-1.8,9.11-15V54c0-8.33-3-13.72-9.62-13.72-6.41,0-13.85,5.51-13.85,12.82v8.34c0,13.33,1,15,8.08,15v2.69H0Z"/><path class="cls-1" d="M67.44,57.7c0-13,10.13-23.47,22.31-23.47a19.66,19.66,0,0,1,15.64,7.57V20.9c0-12.82-1.54-15-10.13-15V3.21L114.5,0V61.54c0,12.19,2,13.72,8.84,13.72V77.7l-15.77,3.21a44.72,44.72,0,0,1-2-7.44,19.58,19.58,0,0,1-15.77,7.82C77.57,81.29,67.44,70.65,67.44,57.7Zm38,8.33V49.49c-2.31-6-7.18-10.13-13-10.13-10,0-14.61,8.08-14.61,18.34s4.61,18.46,14.61,18.46C98.21,76.16,103.08,72.06,105.39,66Z"/><path class="cls-1" d="M130,57.7c0-13,10.13-23.47,22.31-23.47A19.68,19.68,0,0,1,168,41.8V20.9c0-12.82-1.54-15-10.13-15V3.21L177.06,0V61.54c0,12.19,2.05,13.72,8.85,13.72V77.7l-15.77,3.21a43.77,43.77,0,0,1-2-7.44,19.58,19.58,0,0,1-15.77,7.82C140.14,81.29,130,70.65,130,57.7ZM168,66V49.49c-2.31-6-7.18-10.13-13-10.13-10,0-14.62,8.08-14.62,18.34S145,76.16,155,76.16C160.78,76.16,165.65,72.06,168,66Z"/><path class="cls-1" d="M193.47,76.42c8.46,0,10.13-2.18,10.13-15V55c0-12.83-1.67-14.88-10.13-14.88V37.44l17.05-3.21a51.63,51.63,0,0,1,2.18,9.24c3.47-4.36,9.36-9.24,17.83-9.24,11.54,0,16.66,8.21,16.66,19.11v8.08c0,12.82,1.54,15,10.13,15v2.69H228V76.42c8.34,0,10.13-2.18,10.13-15V54c0-8.33-3-13.72-10.64-13.72-7,0-14.75,5.77-14.75,12.82v8.34c0,13.2,1,15,9,15v2.69H193.47Z"/><path class="cls-2" d="M279.26,57.84c0,10.26,4.88,16.16,13.08,16.16,3.59,0,8.34-1.93,13-5.9l2.18,3.72a27.22,27.22,0,0,1-19.74,8.46c-14.24,0-24.11-9.62-24.11-22.44,0-15.13,11-24.62,23.72-24.62,10.64,0,16.29,5.52,16.29,10.39A5.27,5.27,0,0,1,298,49a5.12,5.12,0,0,1-5-5.13c0-4.1-2.3-5.51-4.61-5.51C281.57,38.35,279.26,46,279.26,57.84Z"/><path class="cls-2" d="M359.27,51.43c-6.54,0-3.21-8.46-10.26-8.46-3.59,0-8.2,3.33-8.2,13.72v2.69c0,12.82,1.54,15,10.13,15V78.1H316.57V74.38c8.59,0,10.13-2.18,10.13-15V55.15c0-12.82-1.54-15-10.13-15V36.43l22.06-3.21a52.38,52.38,0,0,1,2.18,9.23c2.69-5.12,8.84-9.23,14-9.23,8.72,0,11.41,5.9,11.41,10.52C366.19,46.94,364,51.43,359.27,51.43Z"/><path class="cls-2" d="M402,73.36a21.38,21.38,0,0,0,15.26-5.26l2.18,3.72a28.77,28.77,0,0,1-19.49,8.46c-16.67,0-25.9-10.64-25.9-23.59,0-13.59,11.29-23.47,24.75-23.47,14,0,21.28,12.31,18.46,21.16H389.4C388.37,67.46,394.4,72.84,402,73.36Zm5.39-24.62c.38-5.26-2.31-9.36-8-9.36-4.62,0-7.82,3.2-9.1,9.36Z"/><path class="cls-2" d="M467.35,79.51c-5.77,0-9-2.82-9.74-7.44-7.18,5.64-10.39,7.7-16.16,7.7-6.15,0-12.31-4-12.31-10.77,0-10.9,11.67-15.65,28.47-18.21v-.13c0-9.49-3.08-12.18-8.34-12.18-2.95,0-6.92,1.67-6.92,5S440,49,437.22,49s-5.13-2.05-5.13-5.51c0-6.41,9.36-10.26,18.72-10.26,14.23,0,20.26,5.26,20.26,17.44V68c0,3.21,1,4.87,2.69,4.87a7.36,7.36,0,0,0,3.85-1.54l1.8,3.47C475.69,77.59,470.43,79.51,467.35,79.51Zm-9.74-23.59c-9.88,2.56-15.77,5.13-15.77,11.54,0,3.84,2.43,5.13,5,5.13,2.18,0,6.41-1.93,10.77-5.77Z"/><path class="cls-2" d="M483.38,41V36.81c7.69-1.66,16-9.23,16.79-17.56h4.36V35.4h11.16V41H504.53V63.35c0,6,1.8,9.24,5.77,9.24,2.44,0,5.13-1.16,8.72-3.72l1.8,3.72c-4.11,3.84-11.41,7.3-15.77,7.3-9.36,0-15-5.77-15-15.64V41Z"/><path class="cls-2" d="M527.87,78.1V74.38c8.59,0,10.13-2.18,10.13-15V55.15c0-12.82-1.54-15-10.13-15V36.43l24.61-3.21V59.38c0,12.82,1.54,15,10.13,15V78.1ZM545.18,20a8.16,8.16,0,0,1-7.95-8.34,8,8,0,0,1,7.95-8.2,8.26,8.26,0,0,1,8.2,8.2A8.38,8.38,0,0,1,545.18,20Z"/><path class="cls-2" d="M602.62,45.53c2.18-4.49,1-6.41-3.72-6.41V35.4h19.23v3.72c-4.49,0-6.79,1.67-9.1,6.41L591.85,80.41h-3.59L571.07,45.53c-2.3-4.87-4.48-6.41-8.59-6.41V35.4h28.08v3.72c-5.38,0-6.28,2.05-4.23,6.41l7.95,16.93Z"/><path class="cls-2" d="M649.29,73.36a21.35,21.35,0,0,0,15.25-5.26l2.18,3.72a28.75,28.75,0,0,1-19.49,8.46c-16.66,0-25.9-10.64-25.9-23.59,0-13.59,11.29-23.47,24.75-23.47,14,0,21.28,12.31,18.46,21.16H636.72C635.69,67.46,641.72,72.84,649.29,73.36Zm5.38-24.62c.39-5.26-2.31-9.36-7.95-9.36-4.61,0-7.82,3.2-9.1,9.36Z"/></g></g></svg>