<svg xmlns="http://www.w3.org/2000/svg" viewBox="0 0 798.85 106.5"><defs><style>.cls-1{fill:none;}.cls-2{fill:#655674;}.cls-3{fill:#787878;}.cls-4{fill:#d1d1d1;}</style></defs><g id="Layer_2" data-name="Layer 2"><g id="Layer_1-2" data-name="Layer 1"><path class="cls-1" d="M291.77,99.77c169-33,439-25,506-18"/><path class="cls-2" d="M785.92,73.2c1.18-.07,2.11,1,1.64,1.33,2.46-.92,2.4.37,2.9-1.78,1.61-.94,3.1.68,1.29,1.42l4.5-1-2.59-.57c.89-1.75,4.14.91,5.19-1.13l-4.78-.24.3-.58a6,6,0,0,1-3.94-.22c.14-.29.11-.79,1-.76-5.74-.65-1.83,3-6.63,3.21A2.46,2.46,0,0,1,785.92,73.2Z"/><path class="cls-2" d="M781.41,68.38l-2.16,2.14L776,69.71c-.09.79-2.56,1.26-1,2.06a3.31,3.31,0,0,1,1.49-.18c-.49,1.67-4.48.55-3.62,2.33,2.66-.27,3,.13,4.75-1.14a13,13,0,0,1,5.21,1.52c.73-.22.92-1.24,1.85-1.37-.21,0-.4,0-.63,0l.1-2.56c-.81.47-1.5.18-2.35.17q2.06-1.36,4.15-2.67c-1.1-2.53-5.06-1.38-6.52-2.47C781.17,67.69,777.83,66.38,781.41,68.38Z"/><path class="cls-2" d="M784.67,72.93h0Z"/><path class="cls-2" d="M495,85.63a1.3,1.3,0,0,0-1.14,1l9.24-.49c-.32-.66-3-1.36-1.26-1.85-.82-.7-3.21,0-3.52,1l.62-1c-2.07,1.41-3.64-1.1-2.29-1.94l-.18,0-5.66,5.34C492.94,87.83,492.35,85.82,495,85.63Z"/><path class="cls-2" d="M306,102c1.13-.44,1.24-.7,1.06-.92A4.42,4.42,0,0,0,306,102Z"/><path class="cls-2" d="M489.44,88.89l-1.76,1.67A6.56,6.56,0,0,0,489.44,88.89Z"/><path class="cls-2" d="M501.18,64.24a.52.52,0,0,0,0-.27l-.81.85h0C500.67,64.62,500.93,64.43,501.18,64.24Z"/><path class="cls-2" d="M448,97.25l-.6.15A2.2,2.2,0,0,0,448,97.25Z"/><path class="cls-2" d="M526.14,54.26,522,55.92c.53-.74-1.47-.45-.62-1.32-.31.12-1.79.46-1.37.81l.85-.07c-2.12,2.17-.77,2.93-4.34,4.65,2.3,1.17,3.25,0,4.41-1a8.32,8.32,0,0,1,1.07-.32l3.36-3.05Z"/><path class="cls-2" d="M361.1,81.75l0-.17A.22.22,0,0,0,361.1,81.75Z"/><path class="cls-2" d="M361.23,80.89l-.1.69C361.31,81.22,362.12,80.81,361.23,80.89Z"/><path class="cls-2" d="M490.05,87.5a3,3,0,0,1-.61,1.39l1.32-1.25A6.29,6.29,0,0,1,490.05,87.5Z"/><path class="cls-2" d="M493,82.77l3.45-.47,1.23-1.14C496.34,81.63,494.81,82,493,82.77Z"/><path class="cls-2" d="M453.53,98.13c-7.1.78,1.59-2.58-1.72-3-2,.42-2.58,1.63-3.79,2.08,5.58-1.37-.51,3.91,5.14,2.91-.67,2.17-3.94,2.58-5.91,2.13-2.33-1.89,1.8-1.62,2.17-3.65-2.27.48-1.84.83-2.73,2-3.62-.24-7.24,3-9.58.31-2.57.62-2.33,1.56-3.73,2.77-.13,2.18,3.94.87,5,2.53-.21-.17-.62-.52-.53-.83l2.27.31c-2.18-.62.14-2.2,1.26-2.44.83-.1,2.46-.31,2.28.31l-1.22.55c1.66.58,3.44-1.82,5.23-.75.12.48-.51.75-.58,1.06,1.8-1.61,3.65-1.65,6.4-2.89L452,103.87c2.1-2.54,7.26-2.2,10.88-1.16-.41-.35-1.14-.56-.74-1,2-.66,3.71.73,2.82,1.93,1.93-1.93,7.82,1,10.47-1.45l12.23-11.63a4.8,4.8,0,0,1-1.5.67c-1.26-1.85-1.88-1.59.08-3.48-2,1.1-1.12,2.6-4.13,2.82,1.14-1,1.32-3.21-1.58-3.3a32,32,0,0,0-9.3,5.18,56.3,56.3,0,0,1-8.84,6c-.34-1.45-5.59-.69-8.17-.87.88-1.64,2.75-2.21,4.71-2.66-1.25,0-3.39.08-5,.12Z"/><path class="cls-2" d="M469.94,92.1a1.9,1.9,0,0,0-.58-.23A1,1,0,0,0,469.94,92.1Z"/><path class="cls-2" d="M459.55,94.89a.43.43,0,0,0,0-.16l-.61.15Z"/><path class="cls-2" d="M488.2,84.27c.41-.44.72-.57,1.13-1-.26.15-.59.28-.9.42S488,84.1,488.2,84.27Z"/><path class="cls-2" d="M489.77,86.78l-.2.61c.19.06.32.07.48.11C490.09,87.17,490,86.9,489.77,86.78Z"/><path class="cls-2" d="M425.28,86.84l-.66.38C425,87.16,425.2,87,425.28,86.84Z"/><path class="cls-2" d="M445.43,96.16c2.47-.3.14-2.2,3.65-2.44l-1-.07c2.46-1.1,6.92-1,9.91-1.24-.28.9,1.88.94,1.61,2.32,2-.45,4-.89,5-2.35,1.29.37,3.15-1,4.79-.51-.73-.78,2.14-2.92-1.73-1.66.31-.14.1-.31.41-.45-2.6-1-3.5,1-5.68,1.2-1.35-.72,2.06-1.44.81-1.68-2.68.93-8.61-.41-8.24,2.61-2,.35-2.28-.3-2.91-.82-2.91,3.44-11.72-.62-11.4,3.51,1.13-.24,3-.27,4.62-1.27Z"/><path class="cls-2" d="M484,84.69a3.85,3.85,0,0,1-.49,0Z"/><path class="cls-2" d="M516,95.27,515,98c-5.89.82-8,.18-13.2.54-.41-.35.2-.62.51-.75-3.61.49-9.07.18-11.65,1.55-1.15,0-4.23-.68-3.12-1.53a3.63,3.63,0,0,1-1.83.48c-.22-1,1.43-.35,1.43-1.15-.52,0-.73-.22-.83.09.82-.88-1.06-3.25,3-3.39,1.67,2.2-2.78.4-1.74,2.87,1.34,0,1.14-1,1.23-1.33,1.71,0,1.69.61,1.63,1.19.62-.81,2.81.17,3.65-1.06,3.3-.35-.09,1.89,2.07,1.76l1.13-2.6,3.61.3c5.17-1.14-.94-4.35,5-6.07-.73,1.37,1.75,3.45,4.54,3.89-1.65.13-4.64,2-6.81,1.31,3.1,1.84-4.14.43-2.48,2.64a7.26,7.26,0,0,1,5.88-.93l-.62.26c2.06.16,3.52-2.56,6.4-1.63,1.41-.12,1.18.6,1,1.2C514.88,95.24,515.93,94.71,516,95.27Zm-3.06.64-1.9-.19A2.14,2.14,0,0,0,512.9,95.91Z"/><path class="cls-2" d="M754.54,67.08a6.14,6.14,0,0,1,.57.23A1.07,1.07,0,0,0,754.54,67.08Z"/><path class="cls-2" d="M584.76,63.16l1.11.08A5.07,5.07,0,0,0,584.76,63.16Z"/><path class="cls-2" d="M609.59,54.59l1.62-.6A3.18,3.18,0,0,0,609.59,54.59Z"/><path class="cls-2" d="M741.32,66.23l-.05,0c-.1,0-.17.09-.26.12Z"/><path class="cls-2" d="M659.53,60.75a3,3,0,0,0,.9.57C660.39,61.07,660.05,60.89,659.53,60.75Z"/><path class="cls-2" d="M609.29,54.71l.1,0,.2-.16Z"/><path class="cls-2" d="M573.68,55.94c-.23.08-.45.15-.7.26A1.65,1.65,0,0,0,573.68,55.94Z"/><path class="cls-2" d="M575.36,63.11a2.84,2.84,0,0,0-.68.27Z"/><path class="cls-2" d="M536.9,59l-1.49.41A3.44,3.44,0,0,0,536.9,59Z"/><path class="cls-2" d="M571.38,61.53a2.25,2.25,0,0,0-.22.35C571.36,61.79,571.46,61.64,571.38,61.53Z"/><path class="cls-2" d="M763.6,75.13h-.09l-.06.3Z"/><path class="cls-2" d="M767.44,71.67l1.33-.13A3.29,3.29,0,0,0,767.44,71.67Z"/><path class="cls-2" d="M681.14,65.18c.38.38,1.3.83.86,1.25C682.77,65.91,682.74,64.62,681.14,65.18Z"/><path class="cls-2" d="M755.49,90.65a4.79,4.79,0,0,1,.87-.82C755.79,90.17,755.3,90.45,755.49,90.65Z"/><path class="cls-2" d="M756.36,89.83c.28-.17.58-.35.83-.53A5.56,5.56,0,0,0,756.36,89.83Z"/><path class="cls-2" d="M670.74,86.12a.71.71,0,0,0-.44-.37C670.35,86.1,670.51,86.18,670.74,86.12Z"/><path class="cls-2" d="M769.8,72c.27-.59,6.07-1.52,1.29-2.15.3-1.87,3.14-.67,4.45-1.05-.9-.5.55-1.17.31-1.87a4.74,4.74,0,0,1-2.49.48c-.43-.9,1.21-1.37,2.44-1-1.47-1.1,2.06-1.36-.07-2.27-4.71.36-8.05.82-11.48,3.36,2.67-.29,5.68-.65,7.8.25l-1,1.57c-2.36-1.59-3.94-.62-6.35-.94l5.37,1.23c2.45,1.52.73,1.72-1.28,1.88C769.26,71.6,769.69,71.72,769.8,72Z"/><path class="cls-2" d="M765.3,86.07l.08.06a1.67,1.67,0,0,0,.24-.15Z"/><path class="cls-2" d="M538.13,92l-.44.63C538.07,92.38,538.18,92.18,538.13,92Z"/><path class="cls-2" d="M762.57,78Z"/><path class="cls-2" d="M549.56,91.83a.53.53,0,0,1-.06.14A.53.53,0,0,0,549.56,91.83Z"/><path class="cls-2" d="M551.78,56.59a.58.58,0,0,0-.08-.22C551.45,56.47,551.58,56.54,551.78,56.59Z"/><path class="cls-2" d="M549.57,91.68a.4.4,0,0,1,0,.15C549.57,91.77,549.59,91.72,549.57,91.68Z"/><path class="cls-2" d="M605.14,84.88a3.17,3.17,0,0,0-.46-.54C604.57,84.49,604.68,84.66,605.14,84.88Z"/><path class="cls-2" d="M594.11,82.54c-.07-.06-.11-.11-.2-.18Z"/><path class="cls-2" d="M678.66,57.79a5.65,5.65,0,0,0-1.31.07A3.49,3.49,0,0,0,678.66,57.79Z"/><path class="cls-2" d="M549.5,92a2.41,2.41,0,0,1-.53.58A2,2,0,0,0,549.5,92Z"/><path class="cls-2" d="M621.91,76.56l-.34.18a1.67,1.67,0,0,1,.2.08Z"/><path class="cls-2" d="M627.66,77.79a2.78,2.78,0,0,0-.39.54c2.05-.67,5.82.09,6.27-1.64-.69,0-4.3-1-3.69-2-1.43.43-3.55-.8-4.32-.52,2.35,1,.25,1.47-1.33,2-1.45-.51.27-1.4-1-1.72l-3.34.17,2.91.25-.88,1.66.3-.16C627.13,75.65,622.62,78.85,627.66,77.79Z"/><path class="cls-2" d="M627.27,78.33a2.46,2.46,0,0,0-.79.41A.89.89,0,0,0,627.27,78.33Z"/><path class="cls-2" d="M647.34,81.18a5.37,5.37,0,0,0,.87-.26C648.05,81,647.67,81.06,647.34,81.18Z"/><path class="cls-2" d="M500.13,81.31c.11.49,3,1.36,2.9.08l-2.58-.28Z"/><path class="cls-2" d="M702.24,74.72a5.15,5.15,0,0,0-1,0,1.7,1.7,0,0,0-.19.19C701.28,75.05,701.92,74.84,702.24,74.72Z"/><path class="cls-2" d="M630.74,74.07a1.72,1.72,0,0,0-.89.6A1.49,1.49,0,0,0,630.74,74.07Z"/><path class="cls-2" d="M702.33,77.78a3.25,3.25,0,0,1,1,1.44c.84,0,1.44-.62,2.29-.84A5.55,5.55,0,0,1,702.33,77.78Z"/><path class="cls-2" d="M705.74,78.36l-.07,0Z"/><path class="cls-2" d="M498.4,80.85c-.24.11-.49.21-.75.31l.38-.37-2-.29a4.61,4.61,0,0,1-.81.24.58.58,0,0,0,.28-.33l-.64-.12c-1.51,1.4-5.36,2.56-6.45,3.39a11.18,11.18,0,0,1-4.41,1c1.06,0,2.45-.36,2-1.07-2.18-.66-3.35-2.82-7-.74l2.18-.14-4.74,3.09c-1.78-1.1,2.36-1.54,3-2.6-3.73,1.59-7.11-2-8.73.54-.34-1.44-.89-3.86-3.38-3.55,1.9,1.55-1.44,1.17.14,2.86-.81.89-2.81-.34-2.89.76l.2-.62c-4.4-2-5.58,1.68-7.32,3-5.06.93-7.46.14-11.6.65-.23-1-1.55-3.58-3.21-3.37-.69,1.38-4.41,2.24-4.67,4,3,.51,2.34-1.58,4.1-2.1,1.61,1.68.26,1.75,2.36,2.68-1.69-.58-7.33,1.41-9.24-.14l.61-.27c-2.93-.84-3.8-5-8.38-2l-2.19,1.23a2,2,0,0,0,.14-.53c-3.73.14-2.88-1.87-6.86,0,.31-.14.09-.31.4-.46-2.42-.74-4.62,1.37-6.36,1.92-1.2-1.32.14-1.41.72-2.49-4.18-.19-8.41,2.62-10.8,4.56l-2.74-.6c1.52-.72,3.31-2.38,2.75-3.19-1.44.41-1.09,1-3.18,1a11.93,11.93,0,0,1,1.92-3.07c-4.43-1.14-.65,3.29-3.91.77a2.5,2.5,0,0,0-2,2.6l-2.57-1.16c-.14,1.42-3.13,1.82-5.07,2.25-.18.63,1.73,1.31,2.42.69,0,1.11-2.07,1.85-3.41,2-.8-2.85-8.74,1.39-7.52-2.21-5.94,1.61-14.38,2.83-18.21,4.48-1.41-.68-4.08-.31-2.65-1.91-4.85.66-6.95,4-11.85,3.86C346,95,348.63,95,348.33,94c-3,1.6-5.88-.44-10.64,1a1.28,1.28,0,0,0,1-1.12c.16.47-1.85,1.27-3,1.92-.74-.16.89-.48.44-.8a30.12,30.12,0,0,0-6.73.73,42.17,42.17,0,0,0-6.13,1.86c-4,1.51-7.92,3.17-12.57,3.91,2.66-.42,3.34-2.51,3.23-3.3l-2.61.42c-.83,1.13-2.79,1.47-4.29,2.47-.27-.33-1.13-.58-.4-1.17-5.5-1-7.38,4.88-13.84,5l6.89-5.16-2.14-1,3-2.34c-2.21-.7-3.5,2-4,.64.35-.48,1.4-.53,1.29-1.32-2-.22-2,.88-3.39,1.41,3.27-3.6,10.82-4.87,14.75-6.3.6-.34-.42.81-.48,1.13,1.63-.39,2.78.35,4.78-.52,1.08-1.47-1.14-.74-2.19-.7-.05-1.1.48-1.13,1.6-1.49.49,1.4,6.37-.58,8.12.93,3-.76,2.63-1.66,2.24-2.41s-.77-1.41,2.28-1.51l2,1.41c3.28-1.76,7.63-3.53,11.62-3.72l-.82.17c-.46.79.52,1.1,1,1.4,3.07.3,5.47-2.09,7.5-.67,3.15-2.22,8.65-4.37,12.44-5.75.66,1-.56,1.61-2.11,2.21s-3.46,1.11-4.18,1.91l3.53-.5c-2.18.33-2.93,1.29-4.08,2.72,3.14,0,3.91-2.11,6.79-3-.16.63.28.95,1.64.82l.2-1.5c0,.11.21.21.64.25l5.13-1.46c-1.19-.5-1.39-1.76-2.75-1.63.59.79-.54,1.09-1.9,1.21,1.07-1.08-1.42-.65-1.49-1.44a40.61,40.61,0,0,0,7.79-1.42l.73,1.28c2.63,0,5.28-1,7.08-.8l-.47.78c3.15.06,6.12-1.14,9-.13,2.61-1.84,6-3.5,8.09-5.36,1-1.9,8.36,1.46,11.26-1.27.23.17-2,1.49-3,2.24,2.11.09,3.57-2.21,4.39-.44-4.73-.21.38,1.44-1.67,2.14,2.18-.22,4.46-.75,5.47-1.5-3.54.32,1-2.63-2.48-1.53a15.74,15.74,0,0,1,9.75-2.4c0,.79.48,1.12,1.74,1.34l.9-1.23c1.57.08-2.88,1.61.27,1.75,3.05-2.23,9.75.28,10.88-3.46,2.56,1.22-4.55,1.85-.72,3.28-2,1.5-5.12.25-5.68,2.12,2.06-.69.88,1.47,2.24,1.37l2.25-1.32-.52,0c3.79-2.1,10.09-1.63,15.09-2.27,4.13-2.1,6.89-4.93,12-5.06-1.44,1.16,4.31.75,1.22,2.92,2.42.79,4.68-.48,4.68-1.28-2.1-.13-.75-.2-2.52-.48,1.12-1,3.85-1.17,5-.62-.52,0-.31.14-.41.45,2.52.48,1.13-1,2.91-1.55.64,1.31,4,.08,5.66.71l2.28-2c-1.24,1.33,2.3.35,2.74,1.49,1.66-1,3-2.59,5.62-2.38-1,.71,2.42.83,2.53,2.11,4.51,1,7.2-3.84,11.51-2.22-.12.31-.93,1.19.31,1.45a20.38,20.38,0,0,1,3.69-.52l0,0,.06,0c.5-.09.81-.26.81-.57,1.73-1.34,2.59-2.66,6.05-3.89-.32-1.45-3.26-.74-4.52-.21l-1,1.5c-1.15-2.16-3.14.53-4-.17,2-2.68,8.07-2.37,11.64-4.09-2.3-2-7.14-2-11.34-1.59l1.9.79-2.2.13,2.19,1.46c-2.09-.18-3.88.31-5.76.31,2.2-.13,3.15,1.84,1.89,1.58-2.52-1.31-2.52,1.06-4.4,1.07,1.05.08,2.41,0,1.58.92-3.79-1.58-4.73-.39-8.19-2.1.54,2.42-4.19.45-4.59,2.47l1.57.13-3.24,1.63c-3.16-1.84,2.6-2.16-2.12-3.33-4.31,0-4.06,2.5-7.42,2.87,1-1.51,3.64-2.87,6.37-3l-1.69-.62c.82-.88,4.6-.88,6.49-.89-3,1.81,1.48.44,3,1.67.19-1.41-1.8-1.1.5-2.33a18.89,18.89,0,0,1-5.36-.12c6.11.34,5.22-5.12,10.59-4.2-2.42.75.95,2,1.27,2.64a32.34,32.34,0,0,0,4.41-1.07l-1-2c3.05-1,4.32,3.2,7.79.94.41-1.23-3.16-.25-2.52-.52,4.83-1.49,6.72,1.63,11.11,3a4.4,4.4,0,0,1,1.59-3c-.42,1.23.72,1.81-.95,2.76,1.47.46,3.15-.48,4.41-1-3-.61,1.17-1.78,1.7-2.53,1.57.16-.44,1.23-1.38,1.61,1.26.29,2.82,2,3.46.18.1,1.28-3.38,3.48-5.68,3.88l1.57.16c-1.06.69-1.26.51-2.82.36a2.21,2.21,0,0,1,1.13,3c-.21-.18.1-.31-.1-.48-1.26-.29-2.21.09-1.89.76-1.06,1.75,1.77,1,2.65,1.84l1.89-.4L522,58.67c2.76-.74,4.05.54,6.16,1.3l.53-1.49c2.42.07,4.71.46,3.22,2.38-.1-.49-.42-.36-.94-.42a1,1,0,0,1-.33.47,1.83,1.83,0,0,0-.11.26c2.57-.56,4.17-.92,4.32-1-4.33,2.28-.14,2.68-.8,5.32l4.4-1c-2.7-.74-.08-1.27.86-1.66.3,1.46,3.57-.13,5.13,0l-.11.31a12.81,12.81,0,0,0,5.75-.16c-.1-.5,2.15-2.94,3.22-4.41-3.09-.49-1.28-1.11-1.55-2,.32.08.9.08,1-.11.43-.42-.61-.54-.71-1-3.26.76-6.63,1-7.91,3.11,1,.89,1.69-1,2.83-.34-1.59,1.39-3.69,1.22-6.41,1.26l-.92-1.2L536.9,59c1.12-.69.39-2,3.26-2.3-.4-1.14-2.84.36-4.61,0l-.85,1.66c.32-.92-3.46-1-.82-2.3l4.32-1.48L537,53.57l3.67-.43-.84.87c5.89-1.31,1.83,3.17,7.74,1.1,1.81-2,3.82-2.27,7.48-1.86-2.63.49-.24,1.4-1.21,2.56,2.72.78,3.59-.87,5-1.67.71,1,1.22,1.88-1.19,1.77-.26,2.2,3.15-.44,3.42,1.81,8-.22,6.25-7.4,15.63-4.76l-.34.91c5.91-1.26,9.34-.19,14.81-.94l4.34,2.28c-1,.36-3.54,2.11-2.32,3.21-2.12-2.32-4.33-1.49-6.61-2.73-.22.61.7,1,1.11,1.42-1.37,0-2.06-1.06-3.86-.64.09.48,2.07,1.05.59,1.34l-2.47-1.41c-3.27.75-1.57,3.48-5.42,2.89.69-1.3,2.13-3.18,3.61-3.52-1.76-.24,2.34-.82.72-1.56-2.51,1.95-3.75.47-7.11,1.73.39-.28.49-.65,1.32-.78l-4.91-.71c1.23,1.09-4,1.3-3.53,2.94,5.22.59,3.67-.38,9.63.44a9.41,9.41,0,0,0-4.81,3.7.42.42,0,0,0-.32-.14c-.88,1.65.06,2.07.09,4.93,2.67-2.09,4.5-.45,7.67-1.68.58-1.58-1.88-2-3.46-1.53l2.8-1.09-.55.73c2.39.14,4.77.24,7.15.41-1.35.1-1.8,1-2.5,1.7a8,8,0,0,1,2.81.91c-.22-1.5-.1-2.55.8-2.53,4.59.32,7.16,1.65,8.86,3.34l.54-.11c-.79-1.52,3.23-2.77,4.64-4.35-.06,1.59,2.37.94,3.7,1.74.7-1.82-.26-4.32-1.88-5.8-3.1,1.68-1.73,1.69-3.18,4.06l-5,1.6,1.1-1.46c-2.49-.62-4.86,1.31-4.7-.57,1.3-1.27,3.48-.52,4.77-1.79l-1.65-.68c2.89-1.87,1.51,1.77,5,.46-1.3-1.6.32-.12,1.82-1.21-1.22-1.1-6.19.5-5.16-2.23,1.82-1.2,6.18,3.15,8.58.43l-.11.31c3.57.33,4.82-1.24,6.15-2.23,1.53.87,3.62-.38,5.27-.49l0,.79L617,54.7c-1.11,1.46-2.73,0-4.73.21l.26,1.47c-2.31-1.73-3.84.93-5.61,2.21,2.59-1.29,7.33.32,7.93-2.57l1.61,1.48.77-.54c1.2,1.1,0,2.86-2.34,3.21-.41-.37-.61-.55-.49-.86-1.07.67-2.06,1.82-4.66,1.49l1.39-.78c-3.25-.09-6.19.5-7.29,2a93.64,93.64,0,0,0,13.67.58c1.29-3.34,2.83-5.19,3.49-8.28,3-.56,7-1,9.53.18l-.23.6a5.66,5.66,0,0,0,3.37-.18c1.32.82-.92,1.63,0,2.07l4.24-1c-.27,1.39-3.83,1.38-5.52,1.47.32-.11,1-.34.76-.53-2-.59-5.63,1.78-6.49-.25-1,.35,1.95-1.48-1.29-1.6a2.27,2.27,0,0,0-3.11,1.64c0,.8,3.41,1.11,2.21,2,1.69-.09,2.37-1.11,4.52-.33-1.67.09-4,1.69-4.84.45-3.31,1.46-2.83,5.18-1.27,5.4-.37-1.17,6-1.41,1.7-2.95,1.94-1.49,5.51-1.49,8.06-2.41l-.12.3,3.17-.36c-.45.41-1.41.76-1.44,1.55l4.39-2.1c-2.47,1.41,1.53,1,2.65,1.63.47-1.21,2.19-2.09.55-2.79-1.84-.89-1.08.65-2.76.73l2.4-1.9.2.19,1.44-1.56c3.25.13-1.44,3.63,2.73,2.12l-.53-2.13A63,63,0,0,1,653,56c2.56.55,5,.95,6.66.48-.95,1.2-1.39,3.14-.12,4.32a24.35,24.35,0,0,0-6.5-.19c-.4-.39,2.65-2.48,4.93-2-1.07-3.5-5.77,2-6-1.51-5.81-1.27-4.37,3.39-9.29,1.28-.07,1.59-1.4.77-1.67,2.16,1.44,2.59,6.59,0,9.78.86-.31.12-.94.35-1.07.65a7.33,7.33,0,0,0,4.84-.44l-.2-.18c2.81-1.5,1.71,1.2,3.35,1.92.64-.22,2.91.27,2.56-.89l3,1.55-.12-1.77c1.68-.08,2,1.09,3.56,0l.1-1.58-4.16-.61c2.12-.48.61-1.5,2.93-1.8-2.62,1.69,1.83.91,2.06,2.38l1.72-.87-.44.42c1.33.83,1.61-.56,3.17-.33-1.83-.91-3-2-5.4-1a24.7,24.7,0,0,1,6-1.83c1.81-.63,3,.6,4.73.8-3.24.58,1,4.81-5.41,3.57.13-.3.65-.22.85,0-.83-2-3.88.07-5.29.82.34,1.17-1.13,1.43,1.34,2.11-.8-.75,2.14-2.55,4.49-1.56l-.46,2.48,3.43.34-.32.12c1.26,1.62,3.67-.25,6,.73,1.73-.89,8.27,0,5.51-2.67,2.09,1.61,4-.32,6.33-.59L691,62.07c3.47-1.69,2.45-.56,5.27-3.32.26.69.85,1.26.28,2,4.59.26,11.14,1.14,13.9-.82,3.25.19,3.66,3.12,8.25,2.15,1-.31-.67-2.35,2.32-1.52.2.19-3,1.73.4,1.66,2.46-1.82,5.57,1.28,8.75-.26,1.61.75,4.47.6,3.81,2.09-2.58-.45-6.27-.27-6.86.43.39-.9-1.81-.95.13-1.58-3.89-1.3-2.59.84-6.08-.08-.27.6,1.75,1.74,2.52,1.23-.06,2.07-7,.73-3.94,3.33,3.76.33,5-3.94,8.21-1.64-1.35,1.21-3.35.06-5.09,2.17l2.64.93,2-1.41-.13.3c4.66,2.07,4.46-2,8.74-2.84-2.39-1.53.72-3.56-1.09-4.51,2.85-.15,4.92.2,4.85,2.27-5.38,1.48-.4,2.17-5.38,4,.77.77-1.29,3,1.61,3.32,3.35-1.35-.91-1.76,2.4-2.32.19.19.38.39.25.69,1.56-1,1.74.44,3.62-.65l-.45.39c2.19,1.37,2.53-1.29,4.4.17-.7-1.57,1.36-1.19,2.61-2.09-1.94-.68-2.9-2.93-6.79-3-.52,1.2-.27,1.87-1.89,2.4l2.53,0a14.41,14.41,0,0,0-1.49.68l-2.39-.73c3.1-.74,1.75-2.1,3.11-3.3,2.8.67,2.34-.21,4.1.27-.26,1.77,5.28,3.32,8.45,4.63-.5-.1-1.15-.09-1.49-.15-2.41,1,1.54,1.57,1.6,2.06l1.75-.8c-.32.1-.79.5-.08.79,2.34-.22,2.3-2,4.64-2.2.11,1-1.92,2.37-.52,3a4.41,4.41,0,0,0,5,2.55c.24-.37,1-.52,2-.62a1.24,1.24,0,0,0-.36.13l2,1.21c-1.84,1.55-3.47-1-5.31.54l-.24,1.58a6.81,6.81,0,0,0-4.13,1.31c2,.38,2.51,0,4.83-.23.27,1-1.4,1.68-1.64,1.78l.4-.89c-2.68-1.45-4.2,1.31-7.61.84-.51-.09-.19-.19-.06-.48-2.85,1.39-5.47-.85-8.26,1l.92-.79c-1.87.59-5.52,1.94-9.17,3.31l-.06.62c.39.39-1,.31-1.67,0h0c-1.83.68-3.58,1.31-5,1.78a3.27,3.27,0,0,0,1.65.85c.6-.7,3.86,0,3.48-1.64,1.47,1,4-.29,5.06.41-2-1.17,1.49-1.49,1.89-2.38.63,1.08,3,.07,2.68,1.46.38.39-1-1-1.86-.18-2.18,1.19,3.84,1.34,1.13,2.45,3.42-.81,7.83-.16,11.37-1.27l-1.91-.67c1.53.28,5.21.15,5.44.84-1.16.11-2.5,0-4,.23-.16,1.57,3.53.17,3.64,1.15l4.41-2.37-1.86-.21c1.23-.89,5.06.54,7.94.95-1.8,2.05-4.36-.24-7.46.43-2.25.7,1.25,2.16-.87,2.56a2.32,2.32,0,0,0,2.57.07l.8.44c-2,1.82-6.12,1.17-9,2.73a1.77,1.77,0,0,0,.57-.64,10.89,10.89,0,0,0-6.39-.53,2,2,0,0,0,2.17.08c.06.49-1.92.6-2.69,1.1,1.91.67.3,1.17,1.51,1.56a7.15,7.15,0,0,1-3.83-.07c-.76-.78.71-1,.6-2-1.62.51-2.23-1.86-4.6-.85,3.06.56-.92,2.07-2,2.67l.52.1c-1,1.09-1.86,1.09-2.49,0,1.28-.4,2.49,0,2.18-1.19a8.3,8.3,0,0,0-2.63.31l.9-.79-4.16.07a23,23,0,0,0-2.5,3.89c-1-1-2.37-.24-3.33.08l.45-.41c-1.79-1-5.89-.37-6.26.52-1.29-.86,9.46-5.41.18-4.93-3.52-.12-2.3,2.81-4.34,3.73a.46.46,0,0,0-.06-.48c-1.53-.27-1.73.82-3,1.24a3,3,0,0,0,2.69.14c-.51,1.19-3.2-.23-4.41.68,1.59-1.81-2.94-.82-1.72-1.74-3-1.3-6.34.1-8,1.43-2-2.4-3.65.22-7-1,.52.08,1.47-.24,2.19,0,2-1.43-3.47-.87-.48-2.15-.64.21-.07.79.59.57,1.14-.14,2.23-.76,2-1.44L701.1,88l1-.34-4.13-1.93c-.12.3.26.68.46.87-4.82-.92-10.39-.07-14.63-.41-.88,4.18-10.48,1.63-13.95,4.15.94-1.19,1.48-3.3.92-4.19.77-.16,2.37-1.83,4.1-1.45.26.68,2.39,1.47,1,2.22,4.8-.4-.62-1.85.83-3.38-5.33.32-8.49,2.73-11.85,3.66l-.08-.5-2.54.9c2.06.31,1.92,2.68-.73,1.81l.33-.11c-1.51-1-4.69.1-7.06-.09l-1.62,1.35c-2.38-.18-2.45-2.73-3.21-4.27-3.73-.2-5.9,1.89-8.56,3.12-1.19-1.12-6.77-1.41-3.8-2.75-3.37,1-2.72,7-8.47,3.61l1.5-1.07c-5.51.2-13.37,2.29-15.91,1.2,2-3.88-6.89-3.88-7.9-7.67.28.87-1.79,1.17-2.09,1.64a1.32,1.32,0,0,0-2-.09c2.16.75-1.48,4,2.62,2.39A10.73,10.73,0,0,1,596,91.21l0-1.59,3.61.46c-.37-1.16,1.48-1.09,2.24-1.63-6.72-.85.85-3.71-6-3.46-.65,1-.23.61-2,1,.84-.05,1-1.14-.37-1.16l-1.29,1.28c-2.42-2.62,4-1.75,1.89-3.59,2.64-1.26,7.24-2,6.37-4-4.35-.7-3.87,3.81-8.41,2.93l-.49-.86c-1.59.6-1.84,2-2.7,2.84-.08-.49-.49-.85-1.52-1-2.66,2.05-4.44,2.45-6.89,4.73,6.57-1.78,5.66,1.49,12.45-.06-1.06.67-5.85,1.18-6.12,3.37l.05-1.59c-2.21.83-4.4,1.67-7.19,1.21l1.69-.92c-3.67,1.17-6.16-2.28-9,.41a5.2,5.2,0,0,0,2.49-.2,13.87,13.87,0,0,1-6.33.4l-4.21,2.7c0-.79-2.67-.78-1.4-2.06-3.09-1.15-4.48,1.24-6.24,1.66-3.18-1.61,2.7-.8,3-3-4.34-.65-8.92.1-11.32,1.57.89.31,1.32.57,1.29,1-.15-.5-1.89-.34-2.86-.33l-.64,1c-1.63-.64-1.42-1.25-.07-2.07-1.55-.15-3.34,1.89-5,.46,2.61-1.33,6-.37,7.36-1.15-5.49,1.14-5.64-3-12.61-1.44-.1-.49,1.06-1.48-.29-1.45-3.11.48-.75,2.14-1.69,3.32a4.41,4.41,0,0,1,5,1.12l-.62.86c-.1-.43-1.61-.41-2.07-.81l-.34,1.71c.12-1.88-2.33-3.24-4.21-2.47,2,1.3,1.44,1.24,2,3.37-2.6,2.12-3.07-1.89-6,.35.2-.61,2.8-1.15.53-1.53-1.87,0-1.57,1.43-2.81,1.94,1.36-1.61,1-2.76,2.42-4.67,3.32-.31,1.34,0,4.57-.82l-2.8-1.23c2.81-.35,2-1.86,2.21-2.47-4.87-1.44-3.55,2.5-6.66,2.19-1.45,1.13,2.91.13.61,1.33-2.89-.13-.62,1-3.84,1.84l.52-.74c-1-.9-2,.28-3.11.48-1.24.51,1.63,5.39-3.55,5.67a2.1,2.1,0,0,0,.32-.91l4.58-13.33A137.75,137.75,0,0,1,503,81.39c-1.54-2.5,4.27-2.33,3.85-3.47.94.12,1.88.26,2.81.41-.11,1.07-5.82.6-3.23,2.4,4.89-1,7.17.22,11.76-2.2-1.55-2.53-6.14.66-9.25-1.23a6.93,6.93,0,0,0,3.38-.6c-2.87-.25-5.94-.47-9.21-.7l-.7.66a35.9,35.9,0,0,1,3.92.42c-2.91-.09-5.29,1.46-5.4,3.35l.51,0-1,.63Zm-187,17.72a2,2,0,0,0,.3-.72C311.62,98.14,311.77,98.3,311.38,98.57ZM555,72.61c-3.88-.18-7.8-.67-11.54-.76,3.42,1.73,6.32,3.36,7,4.5s-1,1.84-6.55,2l-.73.3a18.73,18.73,0,0,0,6.37.07c1.88-1.35,8-6.33,7.91-6.76-.71-1-1.68.13-2.92-.17Zm2.9,6.2c2.2.37,1.68-.45,2-1.2l-2.3.33A.66.66,0,0,1,557.94,78.81Zm1.86-1.94a1,1,0,0,1-.57-.14Zm-42.71.28a1.89,1.89,0,0,1,.23-.05L515.73,77A2.85,2.85,0,0,0,517.09,77.15Zm4.52,1.67.47-1.38-1.48-.1A2.17,2.17,0,0,0,521.61,78.82Zm14.44,4c.85-1.66,3.87-1.84,4-3.73.18-.49-.46-.66-1.18-.79l-2.55-.07a1.22,1.22,0,0,1-.48.79c.89.21,1.5.66,1.17,1.83-2.36-2.45-2,1.86-4.48,1.3C531.79,83.52,535.32,83.39,536.05,82.83Zm190-4.29a9.66,9.66,0,0,0,.61,1.13l-1.78.87c-3.09-.53-5.48-3.33-8.36-1.11a7,7,0,0,1-2.58-2.94,9.43,9.43,0,0,1,1.73.39C723.61,73.77,719.61,80.64,726,78.54Zm-35.65-4.42a.78.78,0,0,0,.45-.42c-7,3.25-12.76,4.22-16.5,4,.7,1.38,4,2.5,5.61,3.09l-1.44,1.54-.85-1.24-2.48,1.38c.66,1.07,2.65.88,4,1.71.12-.3,4.39-2.06,5.6-3l-3.37-1.14c.91.44,5.41.18,7.2-.16.05-.79-3-2.08-3.42-.39-.34-1.17,3.2-1.09,1-2.39,2.68-1.17,6.88,0,8.83.61l.28,2c2.12.82,1.51-2.32,4-1.12-3.15.3.47,2.16-2,2.24.77.76,0,2.07,2.46,2,2.15-2.53,2.59,1.69,4.61-.54,1.29.84-1.45,1.52,1.12,1.94,3-1.28,2.86-2.26,3.1-4.14-2.76-.61-3.19,2.36-5.44,1.84l4.61-3.1a2.66,2.66,0,0,0-2-.43,4.61,4.61,0,0,0,2.38-1.26c.39-.36.74-.67,1.07-.93-2.56-.08-4.83-.19-5.21-1l.38-.91c-.88-.86-2.38-.24-3.08.41-2.3,0-4.62,1.25-5.09,0l.89-.81A52.75,52.75,0,0,1,690.38,74.12Zm-92.5-2.76c1.73,3.33,3.64,6.28,11.6,5.64l-.63.24c4,2.09,7.83-2.87,12.72-.5-2.37,1.25-2.24,1.12-4.85,4l2.53-1c-.7,1.82,1.84.89,3.7,1L621.3,83c-1.11-.63-4-.86-3.93-.36.64-.24-3.83-2.71-6.26-2.06.26,1.47,5.38.84,3.1,3.25,2-1,2.26.45,4.36-.08-2,1-.49,2-2,3.09l3.44-.51c.09.47-5,1.1-2.19,2.89,1.38-.78,5.07.22,5.13-1.37l.09.49c2.58.35,1.14-2.24,4.31-1.32,0-.8-.57-1.35-1.7-1.19-1,.35-1.11,1.44-3.09,1.65-.89-1.24,2.38.16,1-1.94-.68-1-5.23.88-3.78-1.47l2.58.36c.07-1.59,1.94-1.49,1.89-2.77,1.58-.57,3.07,1.22,4.68-.15.68-1-.49-2.93,2.18-2.09,2.08,2.35,8.23,1.93,10.53,1.6l2-1c-.17-1-3.86.11-2.55-1.14l3.14-.37-.24.61c1,.14,2.11-.51,3.06-.85-1,1.13-3.25.66-2.81,2.32,1.47.33,1.69.94,3.05.63-.3.12-.55.28-.52.51,3,.73,2.9-1.83,3.66-2.37,3-2.13-3-2-2.61-3.7,2.93-.29,5.86-.58,8.79-.82-.76.52-1.52,1-1.24,1.72,2.14.8,0,1.29,3.06,1.25-.19-2.25,3.82-1.34,6-2.61,1,.94,1.19,1.13-1,1.12.23,1.47,3.17,1,4.2,1.1.61-.35,1.65-.55,2.3-.86-.86-.75-.47-1.66,1.43-2.25l.12-.31c-3.1-.45-7.9-2.13-9.87-.66l.56-.71c-3.58-1.33-7.85,2.5-9.48-.29.17-1.09-.72-.26-.64-1.84l-2.66,1.23L650,71l-4.51.34.12-.3c-2.15,1.43-3.83,2.59-5.18,3.54,0,.69.13.9-.58,1.4a2.76,2.76,0,0,1-1.75.3h0c-1.1-.21-1.83-1.2-3.19-1.61l4.19-.15c.34-1.17,0-2.39-2.05-3.22.84,0,1.19-1,.15-1.09-.11.3-2.74.73-1.75,1.67-4,.41-10.41-2.7-16.45-.5,4.34-1.32-3.48-1.59,1.34-2-3.37-1.89-2.9,1.85-6.33,1.57-.29-.67,1.87.08,2.66-1.26-5.71-.71-9.61,3.1-15.12,2.57l-.25-1.46ZM587,73.25l-3.22.53.32,0-3.17,1.23c2,.53,3.27,2.11.54,2.91.23-.61-.58-1.33.36-1.7-1.84-.85-5.88-1.62-4.8.57,3.5-2.15.86,2.8,3.61,1.19-1.47,1.47-3,.85-4.34,1.52,1.44-1.23-.38-2.72-2.58-3.25-1,.37-3.55.08-5.12.7.59,1.34-.78,2.14,1.81,2.43a5.42,5.42,0,0,1-4.06,0c.65-.25,1.78-.44,1.7-.92-1.09-1.23-2.33-1.15-3-1.66l-1.64.24a1.3,1.3,0,0,1,.41.46L562,78.79c2.4-.68,1.13.6,1.11,1.39,0-1.58-1.56-.17-2.38-.11l1.83,1.64c-.85.85-3.09-1.15-2.61.5,3.83.59,5.29.27,8.73-.29l-1.43-1.27c3.88-1,2.44,2.18,6.8,2,1.8-1.22,6.57-.21,6.62-2.58-.53.73,2.75,2.05,4.23,1,1.63-2.18,6.63-2.5,5.11-3.48-1.36,0-3.16,1.18-4.27-.22l2.62-.47-1.73-1.17C587.52,76.15,587.42,75,587,73.25Zm-59.26-12-.1,0h.11Z"/><path class="cls-2" d="M765.13,75.43c.79-.48,2.65-.27,2.36-1.46C767.45,75.25,764.13,74,765.13,75.43Z"/><path class="cls-2" d="M767.29,76.83c.15-.3.09-.79.93-.78l-2.33.17Z"/><path class="cls-2" d="M769.07,85.71A4.71,4.71,0,0,1,773,84.56c.49,3.15-3.09.66-4.12,3.51,3.37.52,4.59-2.13,7.41-2.21C774.94,84.47,769.33,83.35,769.07,85.71Z"/><polygon class="cls-2" points="767.32 89.54 769.25 88.96 769.07 88.77 767.14 89.34 767.32 89.54"/><path class="cls-2" d="M727.42,60.49c-.14-1-1.37-.07-2,.14A2.48,2.48,0,0,0,727.42,60.49Z"/><path class="cls-2" d="M351,72.2l-14.48,3C340.71,74.33,344.57,73.67,351,72.2Z"/><path class="cls-2" d="M678.81,65.48c3.93-.86,5.71-2.53,9.71-2.84-5.21-2.12-7,2.93-11.36.84Z"/><path class="cls-2" d="M680.35,57.72c.61,1.85-3.07,2.11-2.53,3.46,2.65-.4,1.27-1.73,3.66-1.53Z"/><polygon class="cls-2" points="697.33 88.48 696.13 89.4 697.08 89.08 697.33 88.48"/><polygon class="cls-2" points="662.44 59.07 662.88 58.66 660.92 58.05 662.44 59.07"/><path class="cls-2" d="M663.32,58.25l-.44.41Z"/><polygon class="cls-2" points="695.72 92.38 697.45 92.82 698.34 92 695.72 92.38"/><path class="cls-2" d="M680.5,82.16l1.58-.56C681.77,81.71,679.64,80.92,680.5,82.16Z"/><polygon class="cls-2" points="650.45 58.13 648.51 58.82 648.71 59 650.63 58.31 650.45 58.13"/><path class="cls-2" d="M668.14,87c1.06,1.42-3.12.33-.92,1.61C669.2,88.45,668.41,87.7,668.14,87Z"/><path class="cls-2" d="M645.23,77.18a1.39,1.39,0,0,0-.79.2A6.93,6.93,0,0,0,645.23,77.18Z"/><path class="cls-2" d="M645.23,77.18c.84,0,1.66.54,2.24.14A2,2,0,0,0,645.23,77.18Z"/><path class="cls-2" d="M635.69,77.46l.76.1c-.78.7-.41.59.28,0,.8,0,.76-.49.86-.8l.49-.54-.66.5C636.18,76.75,635.43,76.81,635.69,77.46Z"/><path class="cls-2" d="M600.1,53.73c2.81.5,3.54.75,3.4,1.85,2.66.33,2.24-1.55,3.85-2C604.33,53.81,603.71,53.31,600.1,53.73Z"/><path class="cls-2" d="M607.35,53.58c.33,0,.66,0,1-.1A3,3,0,0,0,607.35,53.58Z"/><polygon class="cls-2" points="646.74 89.49 645 91.15 645.63 90.92 646.74 89.49"/><path class="cls-2" d="M595.93,53.2c.52.07,1.35,0,1.77.39C597.84,52.49,595.41,53.14,595.93,53.2Z"/><path class="cls-2" d="M606.87,74.61c.29.67,2.07.25,2.8.5C608.62,75,607.76,73,606.87,74.61Z"/><path class="cls-2" d="M587.92,57.78a1.33,1.33,0,0,1,1,1.71C589.66,58.94,590.66,57,587.92,57.78Z"/><polygon class="cls-2" points="601.77 74.44 602.17 74.81 604.08 74.1 601.77 74.44"/><path class="cls-2" d="M608.65,90.57c2.13-1.32-3.41-3.13.27-4.26-4.76-1.34.37,1.85-3.13,1.66C607.84,88.4,608.86,90,608.65,90.57Z"/><path class="cls-2" d="M605.79,88a4.88,4.88,0,0,0-1-.11A8.71,8.71,0,0,0,605.79,88Z"/><path class="cls-2" d="M575.58,80a3.23,3.23,0,0,0,.71-.46A3.17,3.17,0,0,0,575.58,80Z"/><path class="cls-2" d="M594.61,89.13l3.19-2c-2.13,1.32-7.52,1.28-7.16,3.23a5.69,5.69,0,0,0,4.69-1Z"/><path class="cls-2" d="M557.08,54.27l1.39-.8-1.76-.19C557.22,53.56,556.34,55,557.08,54.27Z"/><path class="cls-2" d="M556.37,53.24l.34,0A.44.44,0,0,0,556.37,53.24Z"/><path class="cls-2" d="M581.64,78.94a5.66,5.66,0,0,0,2.81-.31C584.06,78.26,581.46,78,581.64,78.94Z"/><polygon class="cls-2" points="547.29 57.3 549.59 56.92 547.08 57.12 547.29 57.3"/><polygon class="cls-2" points="536.41 54.32 536 53.96 534.11 54.73 534.52 55.08 536.41 54.32"/><path class="cls-2" d="M551.46,92.36c1.55.18,2.72-1.6,2.3-2l-3,.14c.8,1.52.84-.06,2.58.29Z"/><path class="cls-2" d="M456.46,60.84c.61-1.07,4-.69,4.21.27-.42.45-2.2,1-1,1.52l2.48-2.69c3.59,1.34-2.46,3.48-4.13,4.48,3.58.09,4.53-1.63,8.32-1.87a4.83,4.83,0,0,1-2.49-1.23c-.24-1.76,3.34-1.22,5.86-1.51-1.65-.67-.76-1.39.37-2.14a.81.81,0,0,0,.44-.3l.38-.26h-.3a1.18,1.18,0,0,0-.31-.75c-2.09.62-3.8-.73-5.17-.67,1.52,2.79-4.61,1-6.28,2l-2,.41-.74.06c-.17-.31,0-.72,1.11-1.36-.91.63-4.07.64-3.72,1.54l-7.18.52a2.12,2.12,0,0,1-.64-.43c-.24.19-.27.35-.23.49-5.21.38-10.43.72-15.64,1.15l-15.65,1.44c1.57.09,3,.63,4.58.81-2.23,2.11,2.63.12,2.08,2a4.09,4.09,0,0,1-3.57.32c-.28.94,1.12,1.64,1.06,2.74,4,.81,4.27-3.61,8.18-3.27-.07,1.1-1.18,2.16,1.33,1.79l-.63.29c3.94-1.55,3.33,2.18,5.65-1l.05,1.58c1.74-1.31,5.3-1.55,7.29-1.9l-.1.31c5.5-2.18,3.13-.59,9.4-1.76l-2.79,2c2.23.62,2.59-1.42,4.17-1.31-.09.31.35,1.44-1.11,1.82l7.48-3.31C459,61.32,456.79,61.49,456.46,60.84Z"/><path class="cls-2" d="M466.31,62.55a4.51,4.51,0,0,0,1.41,0A12.76,12.76,0,0,0,466.31,62.55Z"/><path class="cls-2" d="M412,61.69l2.19-.2A6.78,6.78,0,0,0,412,61.69Z"/><path class="cls-2" d="M477.12,58.51c-1.38-.75.93-1.19,1.13-1.8l-4.77.25c.06.61-.38,1.32-.25,1.87Z"/><path class="cls-2" d="M472,55.88a2.93,2.93,0,0,1-1.17,1.23l2.61-.15C473.44,56.51,473.13,56.11,472,55.88Z"/><polygon class="cls-2" points="474.34 88.33 473.51 88.43 472.27 88.96 474.34 88.33"/><path class="cls-2" d="M461.15,86.46c1.05.85,2.9,0,3.52-.25C462.49,86.39,463.41,86,461.15,86.46Z"/><polygon class="cls-2" points="464.44 96.16 462.38 96.82 462.58 96.99 464.44 96.16"/><path class="cls-2" d="M396.31,69.29l-1,.19A4.42,4.42,0,0,0,396.31,69.29Z"/><path class="cls-2" d="M414.38,66.22c-5.22-1.34,3.19-1.76,1.41-3.89l-2.7,1,.18-.63-3.35.49c.79,1,1.31,1,1.26,2.11-4.53,0-1.53-1.18-4.95-2.27l-5,.63.38-.36a.92.92,0,0,0-.73.4c-2.81.37-5.62.69-8.43,1.09L384,66.05c-3,1.21,1.9,1.78-.2,3.63,3.56-.39,9,.19,9.06-2-.09.31-.27.94.48,1.12l1.88-2c-.67-.13-1.34-.27-2-.39,1.9-2,8.65-2.15,10-1.15-3.75.94-1.64,2.92-7.05,2.21.29.53,1.35,1.42.19,1.83C402.46,68.12,408.1,68.63,414.38,66.22Z"/><path class="cls-2" d="M352.21,73.77l0-.21C352.14,73.68,352.11,73.77,352.21,73.77Z"/><path class="cls-2" d="M354.33,73.75l2.76-2.55-4.7.83-.15,1.53c.36-.43,1.92-1.42,2.64-.92Z"/><path class="cls-2" d="M360.45,69.53c-2.37.9-2,2.64-.59,3.3-2.14,1.06-1.41-1.77-2.72.27.2,1.25,2.87.21,3.47-.1Z"/><polygon class="cls-2" points="378.56 68.47 377.95 69.28 379.66 69.28 378.56 68.47"/><path class="cls-2" d="M378,69.28h-1.7a3.86,3.86,0,0,0,.67,1.38Z"/><path class="cls-2" d="M371.8,69.24a20.4,20.4,0,0,0-2.49,0Z"/><path class="cls-2" d="M373.76,69.48l-.08-.22-1.88,0C372.5,69.3,373.13,69.39,373.76,69.48Z"/><path class="cls-2" d="M376.25,69.27c-.4-1.21-.87-2.47-3.26-1.86l.69,1.85Z"/><polygon class="cls-2" points="449.12 95.3 447.28 96.12 447.5 96.3 449.33 95.48 449.12 95.3"/><path class="cls-2" d="M438.15,94.89a6.85,6.85,0,0,0-1.09.75A2.06,2.06,0,0,0,438.15,94.89Z"/><path class="cls-2" d="M430.72,103.94c-2.31-1.06,2.91-1.91-1.22-2.11-.45-1.13,1.35-2.78,3.32-2.37-.07,1.1-1.82.86-.55,1.86,1.18-1.37,1.74-.55,1.17-2.15,2.07-1.19,2.23-2.36,3.62-3.53-2.57.86-8.17-.33-11.31,2.06-1.67,2.13-.34,4.73-.12,7.58C426,105.93,430.68,105.84,430.72,103.94Z"/><path class="cls-2" d="M434.4,106.48a3.11,3.11,0,0,0,1.94-.34C436.1,105.18,435.22,106.38,434.4,106.48Z"/><path class="cls-2" d="M409.08,87.05c-.17.43-2,1.09-1.52,1.75l2.78-.75C409.67,88,409.39,87.56,409.08,87.05Z"/><path class="cls-2" d="M411.56,87.72l-1.22.33A2.71,2.71,0,0,0,411.56,87.72Z"/><path class="cls-2" d="M408.92,86.81l.16.24C409.11,87,409.09,86.88,408.92,86.81Z"/><path class="cls-2" d="M364.76,69.3c-.05-.78-1.27-.18-1.89.12A3.84,3.84,0,0,0,364.76,69.3Z"/><path class="cls-2" d="M317.18,79,316,78.55A1.77,1.77,0,0,0,317.18,79Z"/><path class="cls-2" d="M303.7,103.07a.8.8,0,0,1-.15.44A.77.77,0,0,0,303.7,103.07Z"/><path class="cls-2" d="M303.55,103.51c-.63.77-3.13.17-3.77,1.3l0-.32-1.43.85C299.82,105,302.88,104.59,303.55,103.51Z"/><path class="cls-3" d="M0,76.42c8.59,0,10.13-2.18,10.13-15V20.9c0-12.82-1.54-15-10.13-15V3.21L19.23,0V43.47c3.59-4.36,9.36-9.24,16.8-9.24,11.8,0,15.77,8.21,15.77,19.11v8.08c0,12.82,1.67,15,10.26,15v2.69H33.59V76.42c8.08,0,9.11-1.8,9.11-15V54c0-8.33-3-13.72-9.62-13.72-6.41,0-13.85,5.51-13.85,12.82v8.34c0,13.33,1,15,8.08,15v2.69H0Z"/><path class="cls-3" d="M67.44,57.7c0-13,10.13-23.47,22.31-23.47a19.66,19.66,0,0,1,15.64,7.57V20.9c0-12.82-1.54-15-10.13-15V3.21L114.5,0V61.54c0,12.19,2,13.72,8.84,13.72V77.7l-15.77,3.21a44.72,44.72,0,0,1-2-7.44,19.58,19.58,0,0,1-15.77,7.82C77.57,81.29,67.44,70.65,67.44,57.7Zm38,8.33V49.49c-2.31-6-7.18-10.13-13-10.13-10,0-14.61,8.08-14.61,18.34s4.61,18.46,14.61,18.46C98.21,76.16,103.08,72.06,105.39,66Z"/><path class="cls-3" d="M130,57.7c0-13,10.13-23.47,22.31-23.47A19.68,19.68,0,0,1,168,41.8V20.9c0-12.82-1.54-15-10.13-15V3.21L177.06,0V61.54c0,12.19,2.05,13.72,8.85,13.72V77.7l-15.77,3.21a43.77,43.77,0,0,1-2-7.44,19.58,19.58,0,0,1-15.77,7.82C140.14,81.29,130,70.65,130,57.7ZM168,66V49.49c-2.31-6-7.18-10.13-13-10.13-10,0-14.62,8.08-14.62,18.34S145,76.16,155,76.16C160.78,76.16,165.65,72.06,168,66Z"/><path class="cls-3" d="M193.47,76.42c8.46,0,10.13-2.18,10.13-15V55c0-12.83-1.67-14.88-10.13-14.88V37.44l17.05-3.21a51.63,51.63,0,0,1,2.18,9.24c3.47-4.36,9.36-9.24,17.83-9.24,11.54,0,16.66,8.21,16.66,19.11v8.08c0,12.82,1.54,15,10.13,15v2.69H228V76.42c8.34,0,10.13-2.18,10.13-15V54c0-8.33-3-13.72-10.64-13.72-7,0-14.75,5.77-14.75,12.82v8.34c0,13.2,1,15,9,15v2.69H193.47Z"/><path class="cls-4" d="M279.26,57.84c0,10.26,4.88,16.16,13.08,16.16,3.59,0,8.34-1.93,13-5.9l2.18,3.72a27.22,27.22,0,0,1-19.74,8.46c-14.24,0-24.11-9.62-24.11-22.44,0-15.13,11-24.62,23.72-24.62,10.64,0,16.29,5.52,16.29,10.39A5.27,5.27,0,0,1,298,49a5.12,5.12,0,0,1-5-5.13c0-4.1-2.3-5.51-4.61-5.51C281.57,38.35,279.26,46,279.26,57.84Z"/><path class="cls-4" d="M359.27,51.43c-6.54,0-3.21-8.46-10.26-8.46-3.59,0-8.2,3.33-8.2,13.72v2.69c0,12.82,1.54,15,10.13,15V78.1H316.57V74.38c8.59,0,10.13-2.18,10.13-15V55.15c0-12.82-1.54-15-10.13-15V36.43l22.06-3.21a52.38,52.38,0,0,1,2.18,9.23c2.69-5.12,8.84-9.23,14-9.23,8.72,0,11.41,5.9,11.41,10.52C366.19,46.94,364,51.43,359.27,51.43Z"/><path class="cls-4" d="M402,73.36a21.38,21.38,0,0,0,15.26-5.26l2.18,3.72a28.77,28.77,0,0,1-19.49,8.46c-16.67,0-25.9-10.64-25.9-23.59,0-13.59,11.29-23.47,24.75-23.47,14,0,21.28,12.31,18.46,21.16H389.4C388.37,67.46,394.4,72.84,402,73.36Zm5.39-24.62c.38-5.26-2.31-9.36-8-9.36-4.62,0-7.82,3.2-9.1,9.36Z"/><path class="cls-4" d="M467.35,79.51c-5.77,0-9-2.82-9.74-7.44-7.18,5.64-10.39,7.7-16.16,7.7-6.15,0-12.31-4-12.31-10.77,0-10.9,11.67-15.65,28.47-18.21v-.13c0-9.49-3.08-12.18-8.34-12.18-2.95,0-6.92,1.67-6.92,5S440,49,437.22,49s-5.13-2.05-5.13-5.51c0-6.41,9.36-10.26,18.72-10.26,14.23,0,20.26,5.26,20.26,17.44V68c0,3.21,1,4.87,2.69,4.87a7.36,7.36,0,0,0,3.85-1.54l1.8,3.47C475.69,77.59,470.43,79.51,467.35,79.51Zm-9.74-23.59c-9.88,2.56-15.77,5.13-15.77,11.54,0,3.84,2.43,5.13,5,5.13,2.18,0,6.41-1.93,10.77-5.77Z"/><path class="cls-4" d="M483.38,41V36.81c7.69-1.66,16-9.23,16.79-17.56h4.36V35.4h11.16V41H504.53V63.35c0,6,1.8,9.24,5.77,9.24,2.44,0,5.13-1.16,8.72-3.72l1.8,3.72c-4.11,3.84-11.41,7.3-15.77,7.3-9.36,0-15-5.77-15-15.64V41Z"/><path class="cls-4" d="M527.87,78.1V74.38c8.59,0,10.13-2.18,10.13-15V55.15c0-12.82-1.54-15-10.13-15V36.43l24.61-3.21V59.38c0,12.82,1.54,15,10.13,15V78.1ZM545.18,20a8.16,8.16,0,0,1-7.95-8.34,8,8,0,0,1,7.95-8.2,8.26,8.26,0,0,1,8.2,8.2A8.38,8.38,0,0,1,545.18,20Z"/><path class="cls-4" d="M602.62,45.53c2.18-4.49,1-6.41-3.72-6.41V35.4h19.23v3.72c-4.49,0-6.79,1.67-9.1,6.41L591.85,80.41h-3.59L571.07,45.53c-2.3-4.87-4.48-6.41-8.59-6.41V35.4h28.08v3.72c-5.38,0-6.28,2.05-4.23,6.41l7.95,16.93Z"/><path class="cls-4" d="M649.29,73.36a21.35,21.35,0,0,0,15.25-5.26l2.18,3.72a28.75,28.75,0,0,1-19.49,8.46c-16.66,0-25.9-10.64-25.9-23.59,0-13.59,11.29-23.47,24.75-23.47,14,0,21.28,12.31,18.46,21.16H636.72C635.69,67.46,641.72,72.84,649.29,73.36Zm5.38-24.62c.39-5.26-2.31-9.36-7.95-9.36-4.61,0-7.82,3.2-9.1,9.36Z"/></g></g></svg>