<svg xmlns="http://www.w3.org/2000/svg" viewBox="0 0 576 432"><defs><style>.cls-1{fill:#958fc5;}.cls-2{fill:#90d8f4;}.cls-3{fill:#f9d3e4;}.cls-4{fill:#e2efcf;}.cls-5{fill:#e3dbed;}.cls-6{fill:#fff;}.cls-7{fill:#fff282;}.cls-8{fill:#febe2b;}.cls-9{fill:#905ba5;}.cls-10{fill:#316bb4;}</style></defs><g id="Layer_2" data-name="Layer 2"><g id="Layer_1-2" data-name="Layer 1"><rect class="cls-1" width="576" height="432"/><rect class="cls-2" x="180.78" y="52.96" width="214.45" height="331.15" rx="107.22"/><path class="cls-3" d="M199.54,160.18a88.47,88.47,0,0,1,176.94,0v7.93l18.75-.08v-7.85A107.22,107.22,0,0,0,288,53h0A107.23,107.23,0,0,0,180.78,160.18v8.74l18.76-.08Z"/><path class="cls-4" d="M376.48,160.18a88.47,88.47,0,0,0-176.94,0v17.13h18.75V160.18a69.72,69.72,0,0,1,139.44,0v17.13h18.75V160.18Z"/><path class="cls-5" d="M357.73,160.18a69.72,69.72,0,0,0-139.44,0v17.13H237V160.18a51,51,0,0,1,101.94,0v17.13h18.75Z"/><path class="cls-2" d="M339,160.18a51,51,0,0,0-101.94,0v17.13H339Z"/><path class="cls-6" d="M419.09,166.31A32,32,0,0,0,408,163.7c-5.16-8.34-16.27-13.89-29.2-13.53a41.92,41.92,0,0,0-11.8,2.05,43.64,43.64,0,0,0-20.81-10.82,44.24,44.24,0,0,0-23.88,1.12,68.24,68.24,0,0,0-24.76-8.62c-18.32-2.75-35.34,1.53-45.15,10.15a41.23,41.23,0,0,0-25.64-.39,42.91,42.91,0,0,0-13.73,6.9q-2.86-.7-5.87-1.14c-17.57-2.52-32.93,3-38.26,12.87a38,38,0,0,0-5.85-.07c-14.74,1-25.58,10.44-24.21,21.11,1.32,10.19,13.31,17.8,27.24,17.58,4.05,3.35,10.63,5.21,17.83,4.57a28.49,28.49,0,0,0,10.89-3.14,16.56,16.56,0,0,0,9,3.88,15.92,15.92,0,0,0,12.95-3.93,27.23,27.23,0,0,0,11,3.72,27.55,27.55,0,0,0,12.61-1.36,37.09,37.09,0,0,0,33-3.13c4.12,4.2,10.7,6.53,17.76,5.65a22.21,22.21,0,0,0,12.32-5.57,38,38,0,0,0,15,4.51,36,36,0,0,0,20.35-3.73A23.54,23.54,0,0,0,355,206.11a24.7,24.7,0,0,0,10-3.47,14.44,14.44,0,0,0,11.87,3.66,15.06,15.06,0,0,0,8.24-3.6,26,26,0,0,0,10,2.92c6.22.56,11.93-1,15.68-3.74,10.59,2.36,20.61-1.07,23.92-8.91C438.64,183.67,431.64,171.74,419.09,166.31Z"/><circle class="cls-7" cx="376.48" cy="77.37" r="19.39"/><polygon class="cls-8" points="382.63 85.9 376.48 79.75 370.33 85.9 367.98 83.55 374.13 77.4 367.95 71.22 370.3 68.86 376.48 75.04 382.66 68.86 385.02 71.22 378.84 77.4 384.99 83.54 382.63 85.9"/><circle class="cls-6" cx="239.96" cy="230.68" r="13.08"/><path class="cls-9" d="M234.14,225.08h10.62v2.46a13,13,0,0,0-2.32,2.7,15.52,15.52,0,0,0-1.77,3.94,18.26,18.26,0,0,0-.7,4h-3.62a20.57,20.57,0,0,1,1.35-5.38,20,20,0,0,1,2.91-4.64h-6.47Z"/><circle class="cls-6" cx="271.85" cy="230.68" r="13.08"/><path class="cls-9" d="M268.8,231.13a3.39,3.39,0,0,1-1.25-1,3,3,0,0,1-.54-1.77,3.13,3.13,0,0,1,1.54-2.69,5.73,5.73,0,0,1,3.19-.8,6.17,6.17,0,0,1,3.88,1,3.06,3.06,0,0,1,1.25,2.52,2.91,2.91,0,0,1-.5,1.65,4,4,0,0,1-1.17,1.1,3.72,3.72,0,0,1,1.58,1.35,3.43,3.43,0,0,1,.52,1.86,3.87,3.87,0,0,1-.45,1.83,3.66,3.66,0,0,1-1.11,1.32,4.33,4.33,0,0,1-1.63.68,9.28,9.28,0,0,1-2.08.22,8,8,0,0,1-3.18-.49,3.6,3.6,0,0,1-1.67-1.45,4,4,0,0,1-.57-2.13,3.14,3.14,0,0,1,2.19-3.19Zm1.43,3.07a2,2,0,0,0,.53,1.41,1.61,1.61,0,0,0,1.2.55,1.56,1.56,0,0,0,1.17-.56,2.19,2.19,0,0,0,0-2.83,1.62,1.62,0,0,0-1.21-.56,1.56,1.56,0,0,0-1.18.54A2,2,0,0,0,270.23,234.2Zm.2-5.64a1.48,1.48,0,0,0,.42,1.1,1.58,1.58,0,0,0,1.13.41,1.39,1.39,0,0,0,1-.41,1.44,1.44,0,0,0,.4-1.06,1.49,1.49,0,0,0-.42-1.1,1.42,1.42,0,0,0-1.07-.43,1.42,1.42,0,0,0-1.49,1.49Z"/><circle class="cls-6" cx="303.74" cy="230.68" r="13.08"/><path class="cls-9" d="M298.93,235.23l3.62-.45a1.88,1.88,0,0,0,.48,1.07,1.16,1.16,0,0,0,.83.31,1.49,1.49,0,0,0,1.36-.88,8.27,8.27,0,0,0,.54-2.76,4.54,4.54,0,0,1-1.34,1,3.79,3.79,0,0,1-1.59.31,4,4,0,0,1-3-1.25,4.37,4.37,0,0,1-1.21-3.16,4.66,4.66,0,0,1,.62-2.37,4,4,0,0,1,1.7-1.62,5.89,5.89,0,0,1,2.71-.55,6.35,6.35,0,0,1,3.15.67,4.8,4.8,0,0,1,1.9,2.15,9,9,0,0,1,.71,3.87q0,3.55-1.49,5.19a5.3,5.3,0,0,1-4.14,1.65,6.8,6.8,0,0,1-2.46-.36,3.76,3.76,0,0,1-1.5-1.06A4.8,4.8,0,0,1,298.93,235.23Zm6.7-5.84a2.39,2.39,0,0,0-.54-1.66,1.68,1.68,0,0,0-1.3-.6,1.51,1.51,0,0,0-1.2.54,2.4,2.4,0,0,0-.48,1.63,2.5,2.5,0,0,0,.49,1.68,1.56,1.56,0,0,0,1.24.58,1.64,1.64,0,0,0,1.28-.56A2.3,2.3,0,0,0,305.63,229.39Z"/><circle class="cls-6" cx="335.62" cy="230.68" r="13.08"/><path class="cls-9" d="M328.35,229.25h4.78v-4.81h4v4.81H342v4h-4.81v4.78h-4v-4.78h-4.78Z"/><circle class="cls-6" cx="239.75" cy="261.65" r="13.08"/><path class="cls-9" d="M240.12,266.7H233.5v-3l6.62-7.88h3.17v8h1.64v2.82h-1.64v2.44h-3.17Zm0-2.82v-4.12l-3.5,4.12Z"/><circle class="cls-6" cx="271.64" cy="261.65" r="13.08"/><path class="cls-9" d="M268.15,256.06h8.63V259h-5.85l-.31,2a7,7,0,0,1,1.2-.43,5.35,5.35,0,0,1,1.18-.14,4.38,4.38,0,0,1,3.18,1.19,4,4,0,0,1,1.22,3,5,5,0,0,1-.62,2.43,4.29,4.29,0,0,1-1.79,1.79,6.28,6.28,0,0,1-3,.62,8.94,8.94,0,0,1-2.22-.25,4.38,4.38,0,0,1-2.62-1.83,6.31,6.31,0,0,1-.67-1.54l3.68-.4a2.2,2.2,0,0,0,.63,1.34,1.61,1.61,0,0,0,1.17.46,1.59,1.59,0,0,0,1.25-.57,2.6,2.6,0,0,0,.5-1.72,2.52,2.52,0,0,0-.5-1.72,1.74,1.74,0,0,0-1.33-.54,2,2,0,0,0-1,.26,2.88,2.88,0,0,0-.81.68l-3.09-.45Z"/><circle class="cls-6" cx="303.53" cy="261.65" r="13.08"/><path class="cls-9" d="M309.09,259l-3.62.45a1.91,1.91,0,0,0-.47-1.07,1.18,1.18,0,0,0-.83-.32,1.52,1.52,0,0,0-1.38.9,8.21,8.21,0,0,0-.52,2.75,4.54,4.54,0,0,1,1.34-1,3.76,3.76,0,0,1,1.59-.32,4,4,0,0,1,3,1.25,4.39,4.39,0,0,1,1.2,3.17,4.7,4.7,0,0,1-.61,2.37,4,4,0,0,1-1.69,1.62,6.1,6.1,0,0,1-2.72.55,6.46,6.46,0,0,1-3.15-.67,4.72,4.72,0,0,1-1.9-2.14,9.07,9.07,0,0,1-.71-3.89q0-3.54,1.49-5.19a5.3,5.3,0,0,1,4.14-1.65,6.8,6.8,0,0,1,2.46.36,3.83,3.83,0,0,1,1.51,1.06A4.76,4.76,0,0,1,309.09,259Zm-6.7,5.83a2.43,2.43,0,0,0,.54,1.67,1.69,1.69,0,0,0,1.31.6,1.52,1.52,0,0,0,1.2-.55,2.38,2.38,0,0,0,.48-1.62,2.54,2.54,0,0,0-.5-1.69,1.56,1.56,0,0,0-1.24-.58,1.65,1.65,0,0,0-1.27.56A2.28,2.28,0,0,0,302.39,264.83Z"/><circle class="cls-6" cx="335.42" cy="261.65" r="13.08"/><path class="cls-9" d="M327.82,261h13.93v2.81H327.82Z"/><circle class="cls-6" cx="240.6" cy="291.28" r="13.08"/><path class="cls-9" d="M243,285.46v13.31h-3.68v-8.72a11,11,0,0,1-1.73,1.1,13.56,13.56,0,0,1-2.09.8v-3a8.77,8.77,0,0,0,2.88-1.44,5.86,5.86,0,0,0,1.61-2.07Z"/><circle class="cls-6" cx="272.49" cy="291.28" r="13.08"/><path class="cls-9" d="M278.16,298.77H267.25a6.93,6.93,0,0,1,1.14-3,15.53,15.53,0,0,1,3.57-3.36,10.46,10.46,0,0,0,2-1.8,2,2,0,0,0,.45-1.17,1.37,1.37,0,0,0-.44-1,1.67,1.67,0,0,0-2.25,0,2.64,2.64,0,0,0-.59,1.54l-3.65-.29a6,6,0,0,1,.79-2.4,3.71,3.71,0,0,1,1.61-1.32,7.21,7.21,0,0,1,2.88-.46,8.11,8.11,0,0,1,3,.44,3.61,3.61,0,0,1,1.68,1.34,3.54,3.54,0,0,1,.61,2,4.15,4.15,0,0,1-.7,2.29,9.49,9.49,0,0,1-2.55,2.39c-.73.51-1.22.86-1.46,1.06s-.54.47-.87.8h5.67Z"/><circle class="cls-6" cx="304.38" cy="291.28" r="13.08"/><path class="cls-9" d="M302.94,289.47l-3.44-.62a4.29,4.29,0,0,1,1.65-2.51,5.79,5.79,0,0,1,3.45-.88,5.72,5.72,0,0,1,3.7,1,3,3,0,0,1,1.14,2.4,2.67,2.67,0,0,1-.46,1.53,4,4,0,0,1-1.4,1.21,4,4,0,0,1,1.16.44,2.82,2.82,0,0,1,1,1.05,3.22,3.22,0,0,1,.36,1.57,4.44,4.44,0,0,1-.59,2.19,4,4,0,0,1-1.73,1.62,6.55,6.55,0,0,1-3,.56,7.69,7.69,0,0,1-2.82-.42,4,4,0,0,1-1.69-1.22,5.63,5.63,0,0,1-1-2l3.64-.49a2.84,2.84,0,0,0,.66,1.53,1.63,1.63,0,0,0,1.15.42,1.58,1.58,0,0,0,1.22-.54,2,2,0,0,0,.48-1.42,2,2,0,0,0-.46-1.41,1.66,1.66,0,0,0-1.28-.5,4.67,4.67,0,0,0-1.17.21l.18-2.6a3.55,3.55,0,0,0,.48.05,1.64,1.64,0,0,0,1.19-.46,1.43,1.43,0,0,0,.48-1.08,1.26,1.26,0,0,0-.36-.95,1.33,1.33,0,0,0-1-.36,1.45,1.45,0,0,0-1,.39A2.3,2.3,0,0,0,302.94,289.47Z"/><circle class="cls-6" cx="336.26" cy="291.28" r="13.08"/><path class="cls-9" d="M335,287h3.34l-.28,2.28a12.72,12.72,0,0,1-.37,1.89c.38-.19.63-.32.75-.4.43-.23.75-.39,1-.49l2.1-1,1,3.19-2.33.48a13.36,13.36,0,0,1-1.88.17,11.41,11.41,0,0,1,1.34,1.2l1.57,1.71-2.72,2-1.11-2a17.93,17.93,0,0,1-.79-1.71,16.3,16.3,0,0,1-.79,1.71l-1.13,2-2.79-2,1.69-1.71a11.3,11.3,0,0,1,1.39-1.2c-.47,0-1.07-.14-1.83-.28l-2.34-.37,1.09-3.19,2.1.95c.22.1.77.41,1.64.94q-.28-1.27-.36-1.89Z"/><circle class="cls-6" cx="240.6" cy="320.91" r="13.08"/><path class="cls-9" d="M238.74,320.39h3.88V324h-3.88Z"/><circle class="cls-6" cx="272.49" cy="320.91" r="13.08"/><path class="cls-9" d="M267.51,321.8q0-3.72,1.35-5.22a5.24,5.24,0,0,1,4.09-1.49,6.08,6.08,0,0,1,2.17.33,3.77,3.77,0,0,1,1.38.85,4.48,4.48,0,0,1,.85,1.09,5.76,5.76,0,0,1,.49,1.35,12.19,12.19,0,0,1,.37,3.05q0,3.56-1.21,5.21c-.8,1.1-2.18,1.65-4.15,1.65a5.85,5.85,0,0,1-2.67-.52,4.35,4.35,0,0,1-1.67-1.55,5.81,5.81,0,0,1-.73-2A13.24,13.24,0,0,1,267.51,321.8Zm3.61,0a9,9,0,0,0,.44,3.42,1.39,1.39,0,0,0,1.28.91,1.34,1.34,0,0,0,1-.39,2.36,2.36,0,0,0,.6-1.22,12.75,12.75,0,0,0,.19-2.62,9,9,0,0,0-.44-3.5,1.4,1.4,0,0,0-1.32-.9,1.36,1.36,0,0,0-1.31.92A9.49,9.49,0,0,0,271.12,321.81Z"/><circle class="cls-6" cx="304.38" cy="320.91" r="13.08"/><path class="cls-9" d="M299.79,318.21h9.74v2.91h-9.74Zm0,4.4h9.74v2.88h-9.74Z"/><circle class="cls-6" cx="336.26" cy="320.91" r="13.08"/><path class="cls-9" d="M336.75,315.09h1.86l-3.29,13.53h-1.83Z"/><circle class="cls-6" cx="207.65" cy="230.68" r="13.08"/><path class="cls-9" d="M210.33,232.81l3.54,1.07a6.35,6.35,0,0,1-1.12,2.49,4.85,4.85,0,0,1-1.91,1.51,7.09,7.09,0,0,1-2.89.51,8.46,8.46,0,0,1-3.49-.62,5.48,5.48,0,0,1-2.33-2.18,7.34,7.34,0,0,1-1-4,6.81,6.81,0,0,1,1.72-5,7.88,7.88,0,0,1,8.78-.74,5.87,5.87,0,0,1,2.1,3.07l-3.57.79a3.46,3.46,0,0,0-.39-.87,2.34,2.34,0,0,0-.83-.71,2.56,2.56,0,0,0-3.21.85,4.71,4.71,0,0,0-.55,2.58,4.9,4.9,0,0,0,.66,3,2.59,2.59,0,0,0,3.61.15A4.06,4.06,0,0,0,210.33,232.81Z"/><rect class="cls-10" x="191.65" y="162.13" width="200.6" height="30.53" rx="12.83"/><path class="cls-2" d="M337.26,175a3.5,3.5,0,0,1,.53-1.84,3.87,3.87,0,0,1,1.57-1.38,5.34,5.34,0,0,1,2.4-.52,6.1,6.1,0,0,1,2.05.31,4.23,4.23,0,0,1,1.46.83,3.54,3.54,0,0,1,.87,1.2,3.6,3.6,0,0,1,.28,1.42,3,3,0,0,1-.49,1.71,3.62,3.62,0,0,1-1.47,1.23,4.3,4.3,0,0,1,1.38.85,3.42,3.42,0,0,1,.82,1.21,4,4,0,0,1,.28,1.53,4.26,4.26,0,0,1-.6,2.23,4,4,0,0,1-1.74,1.57,6.23,6.23,0,0,1-2.72.56,6.33,6.33,0,0,1-2.77-.56,4,4,0,0,1-1.74-1.56,4.28,4.28,0,0,1-.59-2.22,3.59,3.59,0,0,1,2.48-3.61A3.1,3.1,0,0,1,337.26,175Zm7,6.47a2.7,2.7,0,0,0-.31-1.33,2.11,2.11,0,0,0-.88-.87,2.65,2.65,0,0,0-1.27-.3,2.3,2.3,0,0,0-1.67.66,2.5,2.5,0,0,0-.67,1.86,2.77,2.77,0,0,0,.32,1.34,2.26,2.26,0,0,0,.86.9,2.41,2.41,0,0,0,1.22.32,2.31,2.31,0,0,0,1.23-.33,2.2,2.2,0,0,0,.86-.9A2.8,2.8,0,0,0,344.26,181.49Zm-2.44-8.34a2,2,0,0,0-1.48.57,2,2,0,0,0-.56,1.47,1.82,1.82,0,0,0,.58,1.38,2,2,0,0,0,1.48.55,2.47,2.47,0,0,0,.84-.14,2,2,0,0,0,.64-.41,1.85,1.85,0,0,0,.42-.61,2.22,2.22,0,0,0,.14-.79,2,2,0,0,0-.26-1,1.87,1.87,0,0,0-.72-.73A2.24,2.24,0,0,0,341.82,173.15Z"/><path class="cls-2" d="M359.89,183.65h-2.52v-3.72h-3.74v-2.56h3.74v-3.74h2.52v3.74h3.76v2.56h-3.76Z"/><path class="cls-2" d="M377.61,179.29a4.44,4.44,0,0,1-1.44,1.15,3.92,3.92,0,0,1-1.76.38,4.09,4.09,0,0,1-1.71-.35,4.15,4.15,0,0,1-1.38-1,4.23,4.23,0,0,1-.89-1.49,5.21,5.21,0,0,1,0-3.7,4.49,4.49,0,0,1,1-1.57,4.79,4.79,0,0,1,1.56-1,5.64,5.64,0,0,1,4.24.09,4.4,4.4,0,0,1,1.66,1.34,6.16,6.16,0,0,1,1,2.2,11.5,11.5,0,0,1,.36,3,13,13,0,0,1-.38,3.3,6.92,6.92,0,0,1-1.11,2.4,4.7,4.7,0,0,1-1.74,1.45,5.51,5.51,0,0,1-2.31.47,4.83,4.83,0,0,1-2.21-.48,3.7,3.7,0,0,1-1.42-1.2,2.44,2.44,0,0,1-.49-1.38,1.06,1.06,0,0,1,.3-.74,1,1,0,0,1,.78-.32,1.32,1.32,0,0,1,.77.24,1.45,1.45,0,0,1,.51.72,2,2,0,0,0,.72.94,1.85,1.85,0,0,0,1.12.36,2.08,2.08,0,0,0,1.05-.29,2.4,2.4,0,0,0,.85-.8A7.66,7.66,0,0,0,377.61,179.29Zm-.22-3a4,4,0,0,0-.18-1.22,2.89,2.89,0,0,0-.51-1,2.42,2.42,0,0,0-.78-.65,2.19,2.19,0,0,0-1-.23,2,2,0,0,0-1.57.79,3.24,3.24,0,0,0-.65,2.11,3.15,3.15,0,0,0,.65,2.07A2,2,0,0,0,375,179a2.27,2.27,0,0,0,1.15-.32,2.41,2.41,0,0,0,.9-.92A2.83,2.83,0,0,0,377.39,176.3Z"/></g></g></svg>