<svg xmlns="http://www.w3.org/2000/svg" xmlns:xlink="http://www.w3.org/1999/xlink" viewBox="0 0 70.89 70.89"><defs><style>.cls-1{fill:url(#linear-gradient);}.cls-2{fill:url(#linear-gradient-2);}</style><linearGradient id="linear-gradient" x1="-349.66" y1="-286.12" x2="378.85" y2="322.19" gradientUnits="userSpaceOnUse"><stop offset="0" stop-color="#6a5221"/><stop offset="0.13" stop-color="#946b25"/><stop offset="0.31" stop-color="#c6882a"/><stop offset="0.39" stop-color="#da942c"/><stop offset="0.45" stop-color="#e79b2c"/><stop offset="0.54" stop-color="#f5a32d"/><stop offset="0.61" stop-color="#faa62d"/><stop offset="0.71" stop-color="#cf9830"/><stop offset="0.92" stop-color="#637638"/><stop offset="1" stop-color="#39693b"/></linearGradient><linearGradient id="linear-gradient-2" x1="10.62" y1="23.67" x2="36.03" y2="35.89" gradientUnits="userSpaceOnUse"><stop offset="0.01" stop-color="#faf399"/><stop offset="0.19" stop-color="#f4ee6b"/><stop offset="0.44" stop-color="#ede830"/><stop offset="0.51" stop-color="#eee938"/><stop offset="0.61" stop-color="#f0eb4f"/><stop offset="0.73" stop-color="#f3ef75"/><stop offset="0.87" stop-color="#f8f5a8"/><stop offset="1" stop-color="#fcfada"/></linearGradient></defs><title>multiplyBefore</title><g id="Layer_2" data-name="Layer 2"><g id="Layer_1-2" data-name="Layer 1"><circle class="cls-1" cx="35.44" cy="35.44" r="35.44"/><path class="cls-2" d="M32,24.19h6.79l-.55,4.64a26.16,26.16,0,0,1-.77,3.83c.78-.38,1.29-.65,1.54-.8.86-.47,1.51-.8,2-1l4.27-2,2.12,6.47-4.73,1a28.15,28.15,0,0,1-3.84.33,22.07,22.07,0,0,1,2.73,2.46l3.2,3.47L39.19,46.7l-2.27-4.15c-.33-.59-.86-1.75-1.6-3.47a35.17,35.17,0,0,1-1.6,3.47l-2.3,4.15-5.68-4.15,3.44-3.47A25.26,25.26,0,0,1,32,36.62c-.94-.08-2.18-.26-3.71-.55l-4.76-.77,2.21-6.47L30,30.76c.45.21,1.56.84,3.34,1.9-.38-1.72-.63-3-.73-3.83Z"/></g></g></svg>