<svg xmlns="http://www.w3.org/2000/svg" viewBox="0 0 70.89 70.89"><defs><style>.cls-1{fill:#bcbec0;}.cls-2{opacity:0.71;}.cls-3{opacity:0.76;}.cls-4{opacity:0.81;}.cls-5{opacity:0.88;}.cls-6{opacity:0.65;}.cls-7{opacity:0.8;}.cls-8{opacity:0.39;}</style></defs><title>multiplyAfter</title><g id="Layer_2" data-name="Layer 2"><g id="Layer_1-2" data-name="Layer 1"><circle class="cls-1" cx="35.44" cy="35.44" r="35.44"/><polygon class="cls-2" points="38.79 24.19 32 24.19 32.26 26.13 36.24 26.13 38.79 24.19"/><path class="cls-3" d="M37.47,32.66a26.16,26.16,0,0,0,.77-3.83l.55-4.64-2.55,1.94-.55,4.63a24.78,24.78,0,0,1-.77,3.84Z"/><path class="cls-4" d="M45.24,28.83l-4.27,2c-.45.21-1.1.54-2,1-.25.15-.76.42-1.54.8L34.92,34.6c.78-.39,1.29-.65,1.54-.8.86-.47,1.51-.81,2-1l4.27-2Z"/><polygon class="cls-5" points="42.69 30.76 44.38 35.92 47.36 35.3 45.24 28.82 42.69 30.76"/><path class="cls-6" d="M31.18,44.49l-.81,1.44a5.08,5.08,0,0,0,1.05.77,48.44,48.44,0,0,0,3.9-7.62,12.93,12.93,0,0,1-2.09.79C32.43,41.76,31.65,43.42,31.18,44.49Z"/><path class="cls-7" d="M30.81,34.6a19.18,19.18,0,0,0,2.54-1.94,16.69,16.69,0,0,0-3.27-1.87l-4.34-2-.91,2.67,2.63,1.2C27.91,32.9,29,33.54,30.81,34.6Z"/><path class="cls-7" d="M36.24,38.56A23,23,0,0,1,39,41l3.17,3.45,2.57-1.92L41.56,39c-.28-.31-2.26-2-2.77-2.4"/><path class="cls-8" d="M42.63,36.29l1.75-.37-1.69-5.16-4.27,2c-.45.2-1.1.54-2,1-.25.15-.76.41-1.54.8a24.78,24.78,0,0,0,.77-3.84l.55-4.63h-4l.36,2.7c.1.83.35,2.11.73,3.83a24.87,24.87,0,0,1-2.54,1.94c-1.78-1.06-2.9-1.7-3.35-1.9l-2.63-1.2-1.3,3.8,4.76.77c1.53.29,2.77.47,3.71.55a25.26,25.26,0,0,0-2.82,2.46l-3.44,3.47,4.63,3.38.81-1.44c.26-.43,1.25-2.73,2-4.62a10.19,10.19,0,0,0,2.09-.79c.74,1.72,1.27,2.88,1.6,3.47l2.27,4.15,3-2.23L39,41a23,23,0,0,0-2.74-2.46c.7-.53,2.22-1.65,2.55-1.94A28.15,28.15,0,0,0,42.63,36.29Z"/></g></g></svg>