<svg xmlns="http://www.w3.org/2000/svg" viewBox="0 0 70.89 70.89"><defs><style>.cls-1{fill:#bcbec0;}.cls-2{opacity:0.71;}.cls-3{opacity:0.88;}.cls-4{opacity:0.39;}</style></defs><title>plusAfter</title><g id="Layer_2" data-name="Layer 2"><g id="Layer_1-2" data-name="Layer 1"><circle class="cls-1" cx="35.44" cy="35.44" r="35.44"/><polygon class="cls-2" points="31.32 31.37 21.59 31.37 21.59 33.3 28.77 33.3 31.32 31.37"/><polygon class="cls-3" points="36.97 49.3 39.52 49.3 39.52 39.57 36.97 41.51 36.97 49.3"/><polygon class="cls-2" points="49.3 31.37 39.52 31.37 36.97 33.3 46.75 33.3 49.3 31.37"/><polyline class="cls-3" points="46.75 33.3 46.75 39.57 49.3 39.57 49.3 31.37"/><polygon class="cls-3" points="36.97 23.53 36.97 33.3 39.52 31.37 39.52 21.59 36.97 23.53"/><polygon class="cls-2" points="39.52 21.59 31.32 21.59 31.32 23.53 36.97 23.53 39.52 21.59"/><polygon class="cls-4" points="36.97 33.3 36.97 23.53 31.32 23.53 31.32 31.37 28.77 33.3 21.59 33.3 21.59 39.57 31.32 39.57 31.32 49.3 36.97 49.3 36.97 41.51 39.52 39.57 46.75 39.57 46.75 33.3 36.97 33.3"/></g></g></svg>