<svg xmlns="http://www.w3.org/2000/svg" viewBox="0 0 792 576"><defs><style>.cls-1{fill:#fff;}.cls-2{fill:#8da8a6;}.cls-3{fill:#d0eced;}.cls-4{fill:#e6f4f6;}.cls-5{fill:#7dacbb;}.cls-6{fill:#aed0d1;}.cls-7{fill:#6ab5b7;}</style></defs><g id="Layer_2" data-name="Layer 2"><g id="Layer_1-2" data-name="Layer 1"><rect class="cls-1" width="792" height="576"/><path class="cls-2" d="M679.59,259.41c-4.38-9.75-16-15.06-26.18-18.86C633,233,609.8,232.4,593.31,216.14c-7.64-7.9-6.43-5-5.88-6.48-11,1.66-11.79,3-21-2.77S548.11,194,538.29,189.37c-22.83-10.82-50.32-7.64-74.7-9-49.07-2.63-100-21-148.4-17.09-28.54,2.33-57,12.52-85.23,21.2-5.87,1.81-25-7.1-25-7.1s-2.86,4.61-2.68,5.79c-8.06,5.25-17.15,10.85-26.2,13.88-11.62,3.88-23.1,8.83-34.54,13.54-5.59,2.31-11.21,5.4-15.63,9.84s-8.09,10.37-9.21,16.21c-2.34,12.19-1.7,23.33-.35,36.23,2.43,23.32,12,45.92,28.94,62.37,13.87,13.44,30.61,23.66,47.4,33.2-.55,1.31,1.61,5.88,1.06,7.18,13.71,3.7,24.7,13.09,38.13,17.1,13.25,4,28.86,4.87,40.94,11.86,11.06,6.39,22.58,14.63,34.2,18.55,14.63,4.94,29.13,4.38,44.58,1.28,14.89-3,30.57-8.18,45.67-11.09,53.25-10.27,104.57,5.89,157.47-17.53,14.95-6.62,33.36-6.46,48.32-7,19-.71,38.36-21.91,51.61-35.74,13-18.51,25.28-39,29.22-59.42C686.26,281.23,684.87,271.13,679.59,259.41Zm-466.2,63.85c-3.19,15.37-8.17,29.92-14,44.68-17.42-10.31-35-20.41-50.25-33.1-17.78-14.79-25-40.16-27.73-62.63-1.51-12.13-2.3-22.76-.28-34.32,1.89-10.82,11.68-19.35,22-23.49,11.05-4.43,22.24-8.81,33.46-12.91,10.26-3.74,18.82-10,28.34-15.14.31,1.53,1.93,15.49,2.26,17.09,2.86,13.94,2.78,25.2-.75,38.88-.73,2.84-2,5.93-1.87,9,.18,3.28,1.79,6.32,3.2,9.27C216.78,279.55,217.55,303.18,213.39,323.26Zm465.92-31.92c-4.38,21.15-13.88,43.36-28.28,59.28-12.78,14.12-27.58,27.6-46,34.47,11.77-30.42-6.77-60.9-13.21-89.89-5.29-23.83-6.25-50.78.5-74.67,16.29,13.57,39.06,16.13,57.86,23.63,9.07,3.63,20.23,7.43,25.21,16.42C680,268.91,681.27,281.88,679.31,291.34Z"/><path class="cls-3" d="M583.92,203.7a44.75,44.75,0,0,0,6.73,3.43c2.36,1,4.85,1.87,7.36,2.67,5.06,1.57,10.29,2.84,15.57,4.14,10.54,2.65,21.37,5.19,31.86,9.61a65.69,65.69,0,0,1,15,8.64A43.46,43.46,0,0,1,672,245.76a46,46,0,0,1,5,17l.22,2.18c.06.73,0,1.45.07,2.18l0,2.17,0,1.09,0,1.11a56.62,56.62,0,0,1-1.16,8.66,96.94,96.94,0,0,1-5,16.17,158.42,158.42,0,0,1-7,15.13,238.91,238.91,0,0,1-17.36,28.14c-1.6,2.23-3.25,4.44-4.92,6.62s-3.37,4.35-5.12,6.48c-3.5,4.24-7.13,8.38-11,12.32a138.46,138.46,0,0,1-12.41,11.1,63,63,0,0,1-7.08,4.84,28.72,28.72,0,0,1-8.7,3.39l-.29-6.84a14.2,14.2,0,0,0,7-.89,34.65,34.65,0,0,0,7-3.5,68,68,0,0,0,12.14-10.44,143.09,143.09,0,0,0,10.52-12.28q2.48-3.21,4.82-6.52t4.5-6.73a226.85,226.85,0,0,0,15.54-28.34c4.39-9.77,8.24-19.88,10.19-30.06a49.45,49.45,0,0,0,.85-7.55c.06-1.22,0-2.54-.06-3.8,0-.64,0-1.28-.08-1.91l-.21-1.88a38.21,38.21,0,0,0-4.3-14.12,36.58,36.58,0,0,0-9.54-11.11,61.56,61.56,0,0,0-13.26-7.63c-9.58-4.17-20.06-6.78-30.61-9.54-5.28-1.4-10.61-2.86-15.92-4.66a62.37,62.37,0,0,1-15.58-7.42Z"/><path class="cls-3" d="M204.52,183.37c-6.12,1.88-12,3.4-17.82,4.78S175,190.87,169.21,192s-11.64,2.23-17.36,3.54a100.78,100.78,0,0,0-16.69,5.1,56.47,56.47,0,0,0-7.64,3.88l-1.75,1.2-.87.6c-.28.21-.54.44-.82.66l-1.62,1.34c-.51.48-1,1-1.49,1.47A31.32,31.32,0,0,0,113,224.24a45.76,45.76,0,0,0-1.29,8.36c0,.36-.06.71-.08,1.07v1.07l0,2.14c0,1.41.08,2.9.13,4.35a163.67,163.67,0,0,0,1.66,17.43,153.9,153.9,0,0,0,3.67,17A135.76,135.76,0,0,0,123,292a121.57,121.57,0,0,0,18.31,29.25,147.15,147.15,0,0,0,25.51,23.44c9.35,6.9,19.36,12.95,29.47,19L192.69,370a231,231,0,0,1-30.36-19.34,154.2,154.2,0,0,1-26.24-25.09,124.74,124.74,0,0,1-18.62-31.22,140.38,140.38,0,0,1-5.72-17.24,158.66,158.66,0,0,1-3.37-17.78,172,172,0,0,1-1.32-18,59.82,59.82,0,0,1,1.79-18.27,35.29,35.29,0,0,1,9.3-16.14c.57-.54,1.12-1.09,1.7-1.62l1.83-1.46c.31-.24.6-.5.92-.72l1-.65,1.94-1.29a57.76,57.76,0,0,1,8.24-4.06,108.87,108.87,0,0,1,17.32-5.12c5.83-1.3,11.68-2.36,17.49-3.48a162.33,162.33,0,0,0,17.19-4,46.89,46.89,0,0,0,15.39-7.71Z"/><path class="cls-4" d="M307.38,149.72c49.77-4.05,98.5,14.83,148.4,17.1,25.28,1.15,52-1.74,74.69,9,10,4.72,18.63,11.83,28.1,17.53s20.56,10.11,31.59,8.45A141.61,141.61,0,0,0,584,281.67c7.21,33.49,26.72,66.24,19.75,99.77a6.33,6.33,0,0,1-1.73,3.7c-1.87,1.61-4.76.87-7.19.26-19-4.72-38.16,4.77-57.06,9.76-47.91,12.63-99.51-3.92-148.36,4.75-15.45,2.74-30.31,8-45.67,11.09s-31.83,4.07-46.39-1.6c-9.35-3.64-17.38-9.79-26.3-14.32-10.65-5.41-22.41-8.42-34-11.4L185,370.39c8.28-19.76,16.61-39.68,20.61-60.64S209,266.47,199.9,247c-1.4-3-3-6-3.2-9.28-.17-3.07,1-6.06,1.87-9a72.09,72.09,0,0,0,.75-38.9A123.49,123.49,0,0,1,197,177.24s19.31-4.52,25.2-6.31C250.11,162.42,277.92,152.12,307.38,149.72Z"/><path class="cls-3" d="M321.16,405.3a60.84,60.84,0,0,1-16.7-2.35,47,47,0,0,1-7.94-3.17c-2.51-1.25-4.88-2.62-7.17-4-4.58-2.82-8.94-5.67-13.45-8.13a115.93,115.93,0,0,0-14.08-6.35c-9.73-3.63-20-6.3-30.17-9.28s-20.35-5.93-30.48-9.07h0l-.77-.2.28-.78c3.6-10.18,7-20.4,9.74-30.77,1.35-5.18,2.5-10.4,3.41-15.64a149.26,149.26,0,0,0,2.73-15.67,124.72,124.72,0,0,0,0-31.72,99.18,99.18,0,0,0-3.38-15.52c-.4-1.27-.77-2.55-1.26-3.78s-.89-2.5-1.43-3.71-1-2.44-1.59-3.67l-.84-1.88c-.14-.32-.27-.65-.41-1a6.62,6.62,0,0,1-.37-1.31v-.19a5.18,5.18,0,0,1,.18-1.11l.23-.83.48-1.58c.33-1,.65-2,.93-3.05.58-2,1-4.1,1.43-6.17A96.47,96.47,0,0,0,212,211.77a91,91,0,0,0-.22-12.68,101.85,101.85,0,0,0-1.93-12.59h0l-.2-1,.91-.22c3.81-.91,7.6-1.84,11.37-2.86,1.89-.49,3.72-1.05,5.59-1.65l5.6-1.75c7.46-2.36,14.89-4.81,22.38-7.13s15-4.6,22.62-6.54a218.45,218.45,0,0,1,23.18-4.62A178.24,178.24,0,0,1,325,159a234.36,234.36,0,0,1,23.71.95c15.76,1.37,31.27,4.17,46.63,7.08s30.61,6,46,8c7.7,1,15.4,1.65,23.2,2s15.63.51,23.49.9a140.4,140.4,0,0,1,23.5,2.9,69.11,69.11,0,0,1,11.37,3.58A70.67,70.67,0,0,1,533.34,190c6.66,4.22,12.88,9,19.53,13a73.92,73.92,0,0,0,21.31,9.05h0l.68.16-.15.72a169.36,169.36,0,0,0-4,40.27c.09,3.36.26,6.73.57,10.08.15,1.68.29,3.35.51,5s.42,3.34.67,5A171.64,171.64,0,0,0,576.68,293c3.56,13,8.26,25.83,12.06,39,.94,3.3,1.79,6.63,2.58,10s1.39,6.76,1.89,10.17a91.41,91.41,0,0,1,.82,10.32,68.16,68.16,0,0,1-.68,10.31h0l0,.38-.39-.05a63.65,63.65,0,0,0-17,.35,107.51,107.51,0,0,0-16.56,4c-5.44,1.71-10.82,3.67-16.29,5.48a138.65,138.65,0,0,1-16.81,4.63,181.68,181.68,0,0,1-34.69,3.25c-11.58.06-23.11-.49-34.56-1s-22.86-1.07-34.2-.94c-5.67.06-11.33,0-17,0a104.11,104.11,0,0,0-16.92,1.28A159.79,159.79,0,0,0,372.3,394c-5.49,1.55-10.93,3.34-16.46,5s-11.14,3.29-16.92,4.46c-2.89.57-5.82,1.06-8.78,1.38A89.25,89.25,0,0,1,321.16,405.3Zm0-7.56c10.92-.09,21.95-2.29,33.1-4.74l16.81-3.86c5.64-1.27,11.3-2.52,17.05-3.47s11.48-2,17.26-2.76a120.9,120.9,0,0,1,17.41-1.2c11.61.11,23.14.89,34.59,1.69s22.85,1.75,34.23,2a184.22,184.22,0,0,0,33.88-1.9A135.1,135.1,0,0,0,542,379.63c5.48-1.61,11-3.3,16.59-4.73a109.86,109.86,0,0,1,17.09-3.15,61.65,61.65,0,0,1,17.32.68l-.43.34h0a81.56,81.56,0,0,0-.35-10.14c-.33-3.35-.9-6.68-1.55-10a181.31,181.31,0,0,0-5.42-19.53c-4.19-12.89-9.16-25.64-12.73-38.95a153.19,153.19,0,0,1-4.16-20.28c-.23-1.72-.45-3.43-.6-5.15s-.32-3.44-.43-5.16c-.23-3.45-.29-6.91-.29-10.36a141.44,141.44,0,0,1,6.28-40.66l.53.88h0a78.12,78.12,0,0,1-21.75-9.17c-6.79-4-13.1-8.69-19.73-12.75a65.15,65.15,0,0,0-10.31-5.21A68.58,68.58,0,0,0,511,183.12,125.56,125.56,0,0,0,487.87,181c-7.78-.14-15.6.11-23.46.18s-15.79-.07-23.66-.66A416.8,416.8,0,0,1,394,174c-15.41-2.81-30.65-6-46-8.31s-30.88-3.46-46.3-1.68-30.59,5.6-45.56,10c-7.49,2.22-14.95,4.58-22.45,6.86l-5.61,1.74c-1.85.59-3.76,1.17-5.66,1.66-3.8,1-7.6,1.95-11.4,2.9l.71-1.18h0a80.07,80.07,0,0,1,2.69,12.77,83,83,0,0,1,.63,13.09,68.77,68.77,0,0,1-1.6,13c-.48,2.14-1,4.27-1.67,6.36-.3,1.06-.61,2.1-.94,3.12l-.46,1.5-.19.73a3.53,3.53,0,0,0-.1.47v-.19a6.5,6.5,0,0,0,.22.62q.18.43.39.87l.86,1.79c.61,1.21,1.16,2.48,1.74,3.72s1.08,2.53,1.6,3.8,1,2.57,1.44,3.86a102.9,102.9,0,0,1,4.16,15.94,118.78,118.78,0,0,1,1.74,16.4,125.91,125.91,0,0,1-.56,16.48,148.53,148.53,0,0,1-2.47,16.29q-2.07,8-4.77,15.7c-3.58,10.3-7.85,20.28-12.4,30.1l-.49-1h0c10.4,2.1,20.75,4.37,31.1,6.64s20.75,4.42,31.05,7.78A108.62,108.62,0,0,1,278.8,382c4.89,2.45,9.5,5.25,14,7.83s8.95,4.94,13.62,6.16A53.4,53.4,0,0,0,321.16,397.74Z"/><path class="cls-5" d="M290.21,344.83A.92.92,0,0,1,290,344a.35.35,0,0,1,.35-.28,9.57,9.57,0,0,1,1.09,0c.28,0,.36-.07.36-.36a4.28,4.28,0,0,0,0-1,3.45,3.45,0,0,0,0-.86c0-.36.18-.76,0-1.16.21-.35-.19-.68-.08-1.07,0-.08,0-.19,0-.3a4.83,4.83,0,0,1,.08-1.07,5.26,5.26,0,0,0,0-1c0-.57.14-1.15.1-1.76l-.07-1.81c0-.61.11-1.23.11-1.83,0-.94,0-1.88,0-2.81a.72.72,0,0,0-.07-.4c-.18-.33,0-.65-.11-1s.18-.58,0-.87.18-.54,0-.8a1.16,1.16,0,0,0,0-.86c-.15-.25.11-.54,0-.86a1.72,1.72,0,0,1-.08-.8v-1.91a.23.23,0,0,0-.25-.25c-.39,0-.79,0-1.19,0a.56.56,0,0,1-.57-.47,1.1,1.1,0,0,1,0-.51.23.23,0,0,1,.25-.25c.54,0,1.07,0,1.58,0,.33,0,.69-.11,1-.08a2.11,2.11,0,0,0,1,0,4.5,4.5,0,0,0,1.27,0,4.63,4.63,0,0,1,1.19-.07,7,7,0,0,1,1.51.11,6.75,6.75,0,0,0,1.19,0c.32-.29.72,0,1-.07a.78.78,0,0,1,.87.68c0,.29,0,.62,0,.9v2.13a2.38,2.38,0,0,0,.07.68c.11.36-.1.69-.1,1.05,0,0-.07.07-.07.07a1,1,0,0,1-.94,0,1.94,1.94,0,0,1-.33-.68,7.43,7.43,0,0,0-.54-1.63,16.18,16.18,0,0,0-.54-1.62.34.34,0,0,0-.36-.25l-1.26-.1c-.11,0-.22-.05-.29-.05a.63.63,0,0,0-.5.55,14.92,14.92,0,0,0-.15,1.76,41,41,0,0,1,.15,4.19,1.31,1.31,0,0,0,.1.5,4.7,4.7,0,0,1,.08,1.29c-.18.22,0,.44,0,.65s.11.44.29.44c.5,0,1,0,1.47-.07.22,0,.22.1.25-.37,0-.28,0-.57,0-.79s-.1-.25,0-.33a.81.81,0,0,1,.76-.1c.36.15.4.18.43.57a13.28,13.28,0,0,0,.11,2c0,.1-.07.21-.07.28a2.61,2.61,0,0,0,.07,1.3.66.66,0,0,1-.11.58.29.29,0,0,1-.28.21h-.4a.32.32,0,0,1-.36-.28,2.16,2.16,0,0,0-.11-.79c-.11-.18,0-.37,0-.58s0-.54-.39-.47a2,2,0,0,1-.47,0c-.39-.11-.76.15-1.15.19,0,0-.11.1-.11.14V332c0,1-.22,1.9-.15,2.84l.15,2.31a3.73,3.73,0,0,1-.15,1.4c-.07.11,0,.25,0,.4a37.94,37.94,0,0,0,0,4.1c0,.3.11.4.36.4l1.66,0a.34.34,0,0,1,.21.14,1.42,1.42,0,0,1,0,.79.58.58,0,0,1-.5.29c-1.12,0-2.24,0-3.35,0a2.69,2.69,0,0,0-1.09.11.76.76,0,0,1-.5,0c-.29-.1-.54-.25-.83,0-.32-.22-.57,0-.87.07h-.39A.27.27,0,0,1,290.21,344.83Z"/><path class="cls-5" d="M307.23,344.64a5.31,5.31,0,0,1-1.8-1.07c-.07-.37-.9-1.16-1.12-1.37a5.2,5.2,0,0,1-1.3-2.92,19.67,19.67,0,0,1-.64-2.81c0-.11,0-.22,0-.3a4.4,4.4,0,0,1-.18-1.58c0-.46,0-.93-.08-1.4s.08-.87.08-1.3,0-1,0-1.44V329a12,12,0,0,1,.5-2.56,3.75,3.75,0,0,0,.11-.57c0-.15,0-.3.08-.4a23.77,23.77,0,0,1,1.58-3.61,10.11,10.11,0,0,1,2.52-2.05,7.87,7.87,0,0,1,2.6-.47,2.68,2.68,0,0,1,1.84.76c.82.64,1.76.9,2.12,1.91a8.51,8.51,0,0,1,1.55,2.81c0,.14.25,1.26.29,1.37a10.85,10.85,0,0,0,.22,1.33,3,3,0,0,1,.1,1,11,11,0,0,0,.11,1.48,10.27,10.27,0,0,1,0,1.84,4.63,4.63,0,0,0,.1,1.4c.08.11,0,.29,0,.4,0,.58-.18,1.11-.18,1.66a13.89,13.89,0,0,0,0,1.58c-.29.47-.07,1-.32,1.48a14.84,14.84,0,0,1-.83,2.66c-.22.87-.83,1.12-1.23,1.92,0,.1-1.11.75-1.18,1.12a2,2,0,0,0-.94.57,3,3,0,0,1-2.13.47A9,9,0,0,1,307.23,344.64Zm3-1.58a2.31,2.31,0,0,0,.4-.65,2.46,2.46,0,0,0,.43-1.19c.18-1,.36-2.31.5-3.31a4.18,4.18,0,0,1,.26-1.59.93.93,0,0,0,0-.29c0-1.83.11-3.71,0-5.55a20.18,20.18,0,0,1-.18-2.2,3.91,3.91,0,0,0,0-.9,2.24,2.24,0,0,1-.07-1c0-.29-.07-.69,0-1a5.89,5.89,0,0,0-.32-1.77,3.59,3.59,0,0,0-.11-.57,5.15,5.15,0,0,0-1.33-2.31c-.15-.11-.22-.29-.4-.29s-.5-.07-.68.11c-.37.36-.8.65-.94,1.15-.22.87-.65,1.62-.83,2.49a13.13,13.13,0,0,0-.5,2.63v.47a1.24,1.24,0,0,1,0,.61,1.35,1.35,0,0,0-.11.57v3a36.25,36.25,0,0,0,.36,6c0,.91.47,1.74.47,2.67.36,1,.5,2.27,1.48,3.06a.78.78,0,0,0,.86.33C309.68,343.46,310.08,343.49,310.22,343.06Z"/><path class="cls-5" d="M317.51,344.83a.28.28,0,0,1-.22-.15,1,1,0,0,1-.07-.94.18.18,0,0,1,.18-.1c.14,0,.5,0,.68,0,.33-.07.65,0,1,0a2.71,2.71,0,0,0,.07-1.2,1.83,1.83,0,0,0-.15-1.07v-.12c.26-.39,0-.82,0-1.25a1.94,1.94,0,0,1,0-.4,10.87,10.87,0,0,0,.15-3.06,1.63,1.63,0,0,1,0-1.09,1.52,1.52,0,0,0,0-.79c-.08-.21.14-.43,0-.65s0-.39.07-.58,0-.17,0-.28c0-.32-.14-.58-.14-.9s.18-.58,0-.87a2,2,0,0,0,0-1,5,5,0,0,1,0-1V324a3.66,3.66,0,0,0-.15-1.08,1.94,1.94,0,0,1,0-.8.89.89,0,0,0,.07-.28c-.07-.25,0-.58-.18-.76s-.5-.07-.76-.07h-.11c-.72,0-.9-.14-.86-.86,0-.22.11-.33.29-.33a12.3,12.3,0,0,1,3.78-.11.45.45,0,0,0,.18,0,3.34,3.34,0,0,1,1.69,0,1.61,1.61,0,0,0,.69,0,4.17,4.17,0,0,1,1.8.25c.76.43,2.13.36,2.52,1.19.19.4,1.09,1.12,1.19,1.55s.25.75.37,1.15.14.83.28,1.55a11.07,11.07,0,0,1,.11,1.51,6.83,6.83,0,0,1-1.08,3.25,3.63,3.63,0,0,1-2.2,1.95c-.25.1-1.37.32-1.62.43s-.51.07-.36.47c.69.25,2,.43,2.13.68.53.25.68.76.9,1.08a4.06,4.06,0,0,0,.18.68c.25.94.64,1.88.86,2.85a3.07,3.07,0,0,1,.15.58,3.37,3.37,0,0,0,.25.86,9,9,0,0,1,.54,1.59,3.18,3.18,0,0,0,.29.87c.14.25.1.61.39.79s.4.47.69.5a1.91,1.91,0,0,0,.51.11c.17.11.39-.07.53.18a.77.77,0,0,1,.07.76c-.07.14-.07.25-.25.29s-.21.07-.28,0a14.27,14.27,0,0,0-2.06,0h-1a2.7,2.7,0,0,1-1.15-.47,2.41,2.41,0,0,1-.68-1,4.25,4.25,0,0,0-.33-.77,7.42,7.42,0,0,1-.72-2c-.32-1.08-.58-2.16-.9-3.24l-.54-1.52a4.83,4.83,0,0,1-.4-1.44,11.71,11.71,0,0,0-.4-1.19.27.27,0,0,0-.29,0s-.07.07-.1.14v.83a6.75,6.75,0,0,0,0,.9c0,.25-.25.47-.08.76s-.07.57.08.83c-.18.29,0,.61,0,.89a1.82,1.82,0,0,0-.08.76,13,13,0,0,1,.08,2.92v1.91c0,.22.1.29.32.29s.69,0,1,0,.47.14.47.5c0,.08,0,.11,0,.18,0,.36-.3.72-.62.65a4.53,4.53,0,0,0-1.22,0c-.76,0-1.48,0-2.24.07-.18,0-.32.11-.54,0a13.61,13.61,0,0,0-2.05,0A4.09,4.09,0,0,1,317.51,344.83Zm6.16-13c.47-.33.87-.29,1.4-.8a1.68,1.68,0,0,0,.54-.79s0-.11.08-.18c.17-.47.36-.5.54-1,.07-.18,0-.4.1-.58s-.14-.57.08-.87c.1-.14,0-.39,0-.42a10.85,10.85,0,0,0,0-2.21c-.14-.83-.36-1.15-.46-2-.08-.36-.33-.5-.47-.82a2,2,0,0,0-1.45-1.16,1.49,1.49,0,0,0-1-.07c-.11,0-.18,0-.18.11a3.52,3.52,0,0,0,0,.65v1.11c0,.36,0,.72-.07,1.08a5.78,5.78,0,0,1,.07,1.45c-.11.35.11.72-.07,1,.25.36-.07.68,0,1a22.46,22.46,0,0,0,.07,2.59c0,.4.11.36,0,.76a2.41,2.41,0,0,0,0,.9.19.19,0,0,0,.18.18C323.24,331.85,323.49,331.92,323.67,331.82Z"/><path class="cls-5" d="M372.26,344.64a2.85,2.85,0,0,1-1.52-.93,5.45,5.45,0,0,1-1.62-2.6,2.24,2.24,0,0,1-.11-.5,9.65,9.65,0,0,1-.21-1.87,1.18,1.18,0,0,0-.08-.4.82.82,0,0,1,0-.58,8.83,8.83,0,0,0,0-2.41c0-.22-.1-.4,0-.65a.73.73,0,0,0,0-.5,2.9,2.9,0,0,1-.14-1.37v-3a5.54,5.54,0,0,1,.14-1.91,1.26,1.26,0,0,0,0-.4c0-2,0-3.89,0-5.87v-.51a.38.38,0,0,0-.33-.32c-.32,0-.68,0-1,0a.44.44,0,0,1-.4-.37,3.13,3.13,0,0,1,0-.61c0-.11.11-.18.19-.22l.46,0a13.4,13.4,0,0,0,3.21,0,8.79,8.79,0,0,0,2.66.07h.4c.18,0,.4.36.32.47s.08.36,0,.58c0,.07-.35.15-.43.15a4.14,4.14,0,0,1-.61,0c-.25,0-.33.1-.33.39v.11c0,.4,0,.79,0,1.19s0,.75,0,1,.18.79,0,1.19a33.36,33.36,0,0,1,0,4.69c0,.21-.07.39-.07.61a1,1,0,0,0-.07.29,14.43,14.43,0,0,1,.14,3.09c0,.84,0,1.7,0,2.53a1.3,1.3,0,0,0,0,.4,6.33,6.33,0,0,1,.14,1.58,7.45,7.45,0,0,0,.18,2.2,4.13,4.13,0,0,1,0,.61,3,3,0,0,0,.5,2.09,1.89,1.89,0,0,0,2.74.47.52.52,0,0,0,.33-.25,12.84,12.84,0,0,1,.61-1.34,5,5,0,0,0,.14-1.8,7.93,7.93,0,0,1,.07-2.38,2,2,0,0,0,0-.9,5.25,5.25,0,0,0-.1-.82c.17-.3-.08-.51,0-.8s0-.57,0-.9v-2.52a7.68,7.68,0,0,0,0-1.59,9.7,9.7,0,0,1,0-2c0-2-.18-4,0-6v-.72c0-.22,0-.29-.29-.33s-1,.18-1-.18l0-.72c0-.11.07-.25.11-.25a4.41,4.41,0,0,1,1.19-.15,6.31,6.31,0,0,0,2.7,0c.15,0,0,.07.07.18a1.09,1.09,0,0,1,.11.58c0,.35,0,.57-.29.61h-.89c-.3,0-.4.11-.4.36,0,1.12,0,2.27,0,3.42,0,.76,0,1.55,0,2.31a10.12,10.12,0,0,0,0,2.52,2.38,2.38,0,0,1,.07.9,10.87,10.87,0,0,1-.14,1.51c-.07.47.29.91.11,1.37a17.6,17.6,0,0,1,.11,3c0,1.15,0,2.34,0,3.53a13.09,13.09,0,0,1-.43,2.85,1.83,1.83,0,0,1-.44.79,2.71,2.71,0,0,0-.36.46c-.32.4-.57.84-1.08,1C375.46,345.58,373.23,344.86,372.26,344.64Z"/><path class="cls-5" d="M386.39,344.86c-1.08,0-1.8-.68-2.6-1.22a1.11,1.11,0,0,1-.28-.29c-.11-.18-.18-.36-.37-.43a1.62,1.62,0,0,0-.28.39c-.18.36-.22.87-.4,1.19a.58.58,0,0,1-.83.29.27.27,0,0,1-.21-.29,4.13,4.13,0,0,1,.1-1.48.11.11,0,0,0,0-.1c0-.8.07-1.55,0-2.38a19.88,19.88,0,0,1,0-2.56l0-.54c0-.25-.11-.54.14-.62a1.91,1.91,0,0,1,1,0c.1.08.25.15.17.33s.08.36.08.54a2.18,2.18,0,0,0,.1,1.08,1,1,0,0,1,.07.33,13.75,13.75,0,0,0,.73,2.48,4.51,4.51,0,0,0,1.62,1.91,1.91,1.91,0,0,0,.94.36,3,3,0,0,0,1.26,0l.54-.21a1.66,1.66,0,0,0,.83-1.16c.07-.25.11-.5.18-.79a.94.94,0,0,0,0-.29c-.25-.57-.22-1-.47-1.55a7.37,7.37,0,0,1-.22-.9,1.51,1.51,0,0,0-.18-.36c-.4-.58-.83-1.12-1.22-1.69-.55-.76-1-1.52-1.52-2.31-.25-.46-.86-1.11-.86-1.33a13.79,13.79,0,0,0-1.33-2.06c0-.32-.44-.58-.4-.72s-.65-.86-.79-2a6,6,0,0,1-.58-3v-.39a6.44,6.44,0,0,1,.5-2.46,4.44,4.44,0,0,1,1.23-2,8.78,8.78,0,0,1,1.51-1,1.06,1.06,0,0,1,.54-.22,4.27,4.27,0,0,1,1.91.14c.18.08.22.18.4.22a1.88,1.88,0,0,1,1.26.79c.11.11.18.33.32.47s.26.18.33,0a3,3,0,0,1,.18-.58,1.37,1.37,0,0,1,.39-.69.31.31,0,0,1,.37-.07c.14.11.39-.11.5.15a.29.29,0,0,1,.07.29,2.77,2.77,0,0,0-.14,1.08,4,4,0,0,1-.08,1.19,1.64,1.64,0,0,0,0,1.07,1.35,1.35,0,0,1,.08,1,7,7,0,0,0-.12,1.29,2.54,2.54,0,0,1-.1,1c0,.1.1.28-.07.43a1,1,0,0,1-.69.11c-.11,0-.46-.07-.5-.19-.08-.46-.18-1-.22-1.47a6.63,6.63,0,0,0-.39-1.91c-.15-.47-.47-1.41-.62-1.91a1.49,1.49,0,0,0-1.37-1c-.4-.26-.75-.08-1.15.1a2.29,2.29,0,0,0-1.26,1.34,8.68,8.68,0,0,0-.29,2,5,5,0,0,0,.33,1.34c.07.5.82,1.4,1,1.91s.54.58.83,1c.36.65.64.94,1,1.59a1.74,1.74,0,0,0,.22.36c.61.61.9,1.48,1.48,2.16.14.44.61.62.75,1.05a6.93,6.93,0,0,1,1.26,2.74,8,8,0,0,1,.25,1.37,6.79,6.79,0,0,1,.22,1.51c-.07.79-.07,1.62-.18,2.45a3,3,0,0,1-.65,1.51,7.07,7.07,0,0,1-.76,1.05,2.05,2.05,0,0,1-.68.39,3.54,3.54,0,0,1-1.51.4A3.36,3.36,0,0,1,386.39,344.86Z"/><path class="cls-6" d="M295.18,304.4c-.67-.29-.58-3.26-.39-3.65s0-1.43-.09-2.3c.29-5.27.09-11.11.09-16.77.1-1.05-.28-2-.09-3.17a14.48,14.48,0,0,0,.09-2.87v-6.23c0-1.53.29-3.17-.28-4.79-.1-.2.09-.48.09-.77-.09-.86.29-1.63.19-2.49V247.07a8.46,8.46,0,0,0-.38-3.44c-.19-.39,0-1.06,0-1.54-.1-3.83-.1-7.67-.19-11.5a5.09,5.09,0,0,0-.19-2.11c-.29-.58.38-1,.38-1.53a.73.73,0,0,0-.19-.48,12.31,12.31,0,0,1,.29-3.07c.19-.39.57-.29,1.05-.19a4.08,4.08,0,0,0,1.05,0c2.88,0,7.38-.38,8-.1.29.29.1,2.49.19,4.89,0,2.11.29,4.32.19,6.42a7.09,7.09,0,0,1-.28,3.16c-.29.48-.1,1.06-.1,1.64v11.21a8.7,8.7,0,0,0,.29,3.16,8.37,8.37,0,0,1,0,2.69c-.1.76.19,1.24.86,1.24a19.42,19.42,0,0,1,2.4.2c.76.19,1.34-.39,2-.2a3.4,3.4,0,0,0,1.05-.09h3.74c.68-1.34.2-2.78.29-4.22s.1-2.68.1-4h-.1c0-2-.09-4.13,0-6.14.1-1.25-.48-2.59,0-3.83a4.61,4.61,0,0,1-.09-2.3,10.65,10.65,0,0,0-.2-2.4c0-2.11.68-4,0-6.14-.19-.57.2-1.15.2-1.73a9.59,9.59,0,0,1,0-3.35c.19-.67.95-.29,1.62-.38,1.54-.19,6.81.38,8.25,0,.38-.09.1,3.26.19,4,.09,2.77-.09,5.08-.09,7.85a32.23,32.23,0,0,0,.28,5.28c.2,2.49-.1,5.17,0,7.67a34.24,34.24,0,0,0,0,8.82v11.11c0,.58,0,1.73-.28,1.73s.66.86.28,14.47a43.25,43.25,0,0,0,.1,8.63c0,2.21-.2,5.66-.1,7.86,0,.48.38,3.64-.28,3.93-1.44.48-7.1,0-8,.1a6.82,6.82,0,0,1-1.35-.1c-.76-.29-.76-2.49-.76-3.73a1.73,1.73,0,0,0,0-1.54c.58-1-.1-2.11.1-3.17a11.94,11.94,0,0,0,.09-3.16v-3.26c0-1.05-.09-2.1-.09-3.26s.38-2.49.09-3.16c-.48-1,0-2.21,0-3.26V276.6c0-1.25-.29-3,0-3.74.19-.38-.19-.19,0-.86-.09-.77,0-7,0-9.11v-1.05c-.09-1.06-.09-1.15-1.34-1.15h-3.16c-1.63,0-3.26,0-4.89.09a.67.67,0,0,0-.77.77c.19,1.82-.29,3.64.38,5.37.2.28-.09.67-.19,1s-.19.86,0,1.05c.58.77-.09,1.63.19,2.49a3.78,3.78,0,0,1-.28,2.69c.28,1.53-.1,3.06-.1,4.69a71.1,71.1,0,0,1-.29,9.4c-.57,2.87.29,5.94.29,8.82,0,1.15-.58,1.72,0,2.78.19.38-.38,1.05,0,1.05,0,2.11.19,3.26-.67,3.55a15.37,15.37,0,0,1-1.92.19c-.95.19-1.82-.29-2.87,0a14.58,14.58,0,0,1-2.88,0C296.23,304.49,295.56,304.49,295.18,304.4Z"/><path class="cls-6" d="M379.67,305.17c-.3,0-2.88-.2-3.17-.3a4.65,4.65,0,0,1-2.39-.86c-1.82-1.62-4.32-2.58-5.66-5-1.73-3.26-2.88-5.08-3.93-8.53a22.27,22.27,0,0,1-1-4.89c-.1-1.73-1.63-4.89-1.63-6.62a3.78,3.78,0,0,1-.38-2.3c0-2.3,0-4.6-.1-6.9a5.91,5.91,0,0,0-.29-2.59c-.19-.38,0-.86-.09-1.34-.19-1,.29-1.82.09-2.78a12.43,12.43,0,0,1-.09-2.68,7,7,0,0,1,.38-3.36,4.69,4.69,0,0,0,0-1.63,14.89,14.89,0,0,1,.39-2.87,9.78,9.78,0,0,0,.19-2.88,33.07,33.07,0,0,1,.47-4.41c.1-1.53,1.16-3.73,1.64-5.17s.48-3.07,1.05-4.6a12.5,12.5,0,0,1,.57-1.73c.39-1,1.44-1.53,1.92-2.49a9.11,9.11,0,0,1,1.25-2.78,15.13,15.13,0,0,1,4.5-4.41,9.74,9.74,0,0,1,5.18-1.72c.76-.1,2.3.28,3.07.28a3.59,3.59,0,0,1,2.68.77c1.54.38,4.32,2.11,5.18,3.83,1.72,3.55,3.93,6.91,4.31,10.83a38.72,38.72,0,0,1,1.73,5.28c.38,1.43.09,3,.57,4.21.48,1.92.19,3.84.67,5.66a13.81,13.81,0,0,1,.2,4c.09,1.44,0,2.78,0,4.22h-.1c0,2.39,0,4.78.1,7.18,0,1.15-.68,2.21-.48,3.36.19.67-.39,1.34-.2,2a5.6,5.6,0,0,1,.1,1.82,5.91,5.91,0,0,1-.29,2.59.75.75,0,0,0-.09.77c.09,2.39-1.35,4.79-1.64,7.19a17.46,17.46,0,0,1-1.72,6.32c-.58,1-.76,3.26-1.44,4-.76,2.3-2.3,2.59-3.16,4.79a19.81,19.81,0,0,1-2.68,2.11c-1.44,1.15-3.27,1.15-5,1.63A1.94,1.94,0,0,1,379.67,305.17Zm3.44-9.31a18.3,18.3,0,0,1,.68-2c1.24-3.07.76-6.32,1.34-9.68.19-1.53,0-3.16.48-4.7a7.77,7.77,0,0,0,0-2.1,7.88,7.88,0,0,0,.09-2.11c-.09-.77.29-1.35.2-2s.19-1.44.28-2.12c.2-3.16,0-6.32.39-9.49a67.34,67.34,0,0,0,.09-10.73.29.29,0,0,0-.09-.19,7.23,7.23,0,0,1-.39-3.17c0-1.14-.57-2.2-.48-3.35.2-2.11-.48-4-.76-6.14-.19-1.72-.39-3.35-.67-5.08-.39-2.39-1.73-4.4-2.78-6.42a1.65,1.65,0,0,0-2-.67,2.24,2.24,0,0,0-1.53,1.25c-1.25,2.58-2.49,5.18-2.69,8.14a4.06,4.06,0,0,1-.28,1.06,6.48,6.48,0,0,0-.77,3.26,3.05,3.05,0,0,1-.19,1.34c-1,2.4-.67,5-1.24,7.48-.29,1.63.09,3.35-.39,5,.19,1.63-.57,3.26.1,4.89.09.1-.1.29-.1.48-.09,2-.09,4-.09,6.13.57,1.44.28,2.88.38,4.41v2.78a63.19,63.19,0,0,0,.38,7c.38,2.3.38,4.7.67,7.09.29,2.69,1,5.28,1.35,8a4.44,4.44,0,0,0,.18,1.06,9.8,9.8,0,0,0,3.17,5.07c.29.2.57.1.95.1C382.06,300,382.25,298.17,383.11,295.86Z"/><path class="cls-6" d="M435.78,304.49c-.38-.57-.48-3.16-.1-3.26.1,0,.2-.18.2-.38-.48-1.72-.1-3.55-.29-5.27-.1-1,.57-1.82.19-2.78a6.31,6.31,0,0,1-.1-3c.1-2.11-.28-4.31.29-6.43a12.31,12.31,0,0,1-.29-4.21,9.36,9.36,0,0,1,.29-3.64c-.48-2-.09-4.13-.19-6.14a11.11,11.11,0,0,1-.1-1.82c-.09-7.19-.09-14.38-.09-21.47-.1-2.3.19-4.51-.29-6.72a18,18,0,0,0,.29-3.92v-7.77a22.23,22.23,0,0,1,0-2.59,2.53,2.53,0,0,1,.19-2c1.06-.38,3.16-.1,4.41-.19,1.05,0,2.21.29,3.26-.19a14.72,14.72,0,0,0,2.87.38c.48.1.77,1.54,1.16,3.26a9.51,9.51,0,0,0,.57,2.88,9.7,9.7,0,0,1,.38,2.3,5.42,5.42,0,0,0,.39,1.82,60.59,60.59,0,0,1,1.15,7,19.52,19.52,0,0,0,.58,2.88c.66,3.26,1.05,6.52,1.62,9.68.48,3,1.06,5.94,1.63,8.82.48,2.11.87,4.22,1.25,6.23l.57,1.82.19.19c.1-.19.2-.28.2-.38a17.13,17.13,0,0,1,.48-3.16c.28-.86,0-1.92.48-2.88a.75.75,0,0,0,.09-.48c-.19-2.39.48-4.79.57-7.19a32.92,32.92,0,0,1,.68-5.27,12.09,12.09,0,0,0,.38-2.59,13.08,13.08,0,0,1,.38-2.1l1.44-7.19c.48-2.4,1-4.7,1.25-7.1a46.94,46.94,0,0,1,1.44-7.47,1,1,0,0,1,.67-.77,3.2,3.2,0,0,1,1.63-.48,35,35,0,0,1,5.46,0c.76,0,1.15.29,1.92-.09a6,6,0,0,1,1.91.09c-.09,1.25.19,2.59.1,3.83a15.27,15.27,0,0,0-.1,2,8.36,8.36,0,0,1,0,3.45,13.8,13.8,0,0,0-.19,3.45V247a9,9,0,0,0,.38,3.16,4.9,4.9,0,0,1-.09,2.88,3.16,3.16,0,0,0-.1,2.11.69.69,0,0,1,.19.48,4,4,0,0,0,0,2.78,10,10,0,0,1,.1,3V264a29.41,29.41,0,0,0,0,3c.1.67-.48,1.15-.1,2a5,5,0,0,1,.1,2.11c0,3.94,0,7.86.1,11.8a21.56,21.56,0,0,0,.28,5.55,6.48,6.48,0,0,1,.1,2.4c-.19.77.1,1.54-.19,2.3a.35.35,0,0,1-.1.2c.58,2.1.1,4.31.39,6.42.09.47-.1,2.87-.1,4.5-.29,0-.86.19-1.15.19-1.82-.09-3.26.29-5-.38a.4.4,0,0,0-.47,0c-.77.1-1.44.29-2.21.38s-1.34-.38-2.2-.19a10.23,10.23,0,0,1-.19-3.35,7.29,7.29,0,0,1,.19-2c-.58-2.68-.19-5.37-.29-8.05s.1-5.17,0-7.76,0-5.18-.09-7.77c0-1,.38-1.82.09-2.78a11.53,11.53,0,0,1,0-3.16V254.36c0-3.17-.09-6.23-.09-9.39,0-1.25-.39-2.4-.1-3.65,0-.19.1-.86-.19-.86a.54.54,0,0,1-.39-.19c-.09.09-.19.19-.19.29l-1.15,6.23c-.19,1.24-.29,2.58-.57,3.93s-.2,2.49-.48,3.64a20,20,0,0,0-.48,4.8c0,1.14-.58,2.2-.39,3.35-.67.77.1,1.53-.19,2.3a13.2,13.2,0,0,0-.38,2.11c-.1,1.53-.77,3.06-.58,4.69,0,.2-.1.39-.1.58-.18.58-.76,1.06-.57,1.63s-.09,1.05-.09,1.53c-.1,2.59-1,5.08-.77,7.67.09,1.25-.39,2.3-.39,3.45a13.93,13.93,0,0,1-.38,3.45,27.42,27.42,0,0,1-.57,2.78,2,2,0,0,0,.19,1.06c0,.19.1.38-.1.48a2.57,2.57,0,0,1-2.49,1.05,3.8,3.8,0,0,0-1.82-.19c-.57.19-1.15-.38-1.34-1.15-.57-2.49-1.25-4.89-1.63-7.48-.29-2-.29-4.12-1.25-5.94-.38-2.78-1.44-5.46-1.72-8.24a3.57,3.57,0,0,0-.29-1.06c-.77-1-.77-2.78-1.05-3.93-.87-3.16-1.16-5.84-1.82-9.1s-1.64-6.81-2.31-10.26c-.47-2.21-.86-4.51-1.15-6.81,0-.09-.28-.19-.38-.29a.71.71,0,0,0-.19.39c-.1,3.07-.1,6.14-.1,9.2a6,6,0,0,1-.19,2.59c-.1.19,0,.38,0,.48a7.71,7.71,0,0,1,.19,3,107.49,107.49,0,0,1,.1,11.21,3.75,3.75,0,0,0,0,1.06c.67,2.11.09,4.31.38,6.42a5.82,5.82,0,0,1-.29,2.88,7.85,7.85,0,0,0,0,2.11c0,.18.2.38.2.48a5.2,5.2,0,0,1,0,2.39c-.2.77.19,1.34.09,2.11a6.2,6.2,0,0,1-.19,2.3,1.38,1.38,0,0,0-.1,1.35c.68,1.05.2,6.7.1,10.06a12.75,12.75,0,0,1,.29,1.82c0,.39-.1,1.44-.1,2.11-.19,1.05.29,1.63,0,1.82-.57.1-1.05-.48-2,0Z"/><path class="cls-6" d="M514.42,304.49c-1,.2-.86-3.74-.86-4.12a8.87,8.87,0,0,0,.1-1.63v-8.82a20.8,20.8,0,0,1,.28-4.21,9.61,9.61,0,0,0,0-3.74,21,21,0,0,1,0-6.9,3.74,3.74,0,0,0,0-1.82,3.78,3.78,0,0,1-.19-2.88,14.47,14.47,0,0,0,.29-4.51c0-.67-.67-1.34,0-2a.18.18,0,0,0,0-.29c-.77-1.92-.29-4-.38-6s-.1-4.12-.1-6.13c0-2.49.58-5.85.29-7.38a46.34,46.34,0,0,1-.29-8.15,15,15,0,0,0-.29-3,23,23,0,0,1,0-2.49c-.09-.77,0-4-.09-4.8,0-1.24-.1-2.49,1.05-2.49l3.83.1c.77,0,1.44-.48,2.3.19,2.78-.87,6.81-.29,9.59-.29.86,0,2.88.19,3.74-.19a.78.78,0,0,1,.76.09c.68.58,1.34-.18,2,.2,1,0,1.44-.48,1.44.48,0,.67.09,2.58-.39,2.58-1,0-3.73-.28-4.69-.28-1.64.38-3.46.09-7.39.09-.38,0-.57.29-.57.67-.1,2,0,3.84,0,5.85h-.1v5.94c0,.58-.38,1.16-.29,1.82,0,.48.39,1,.29,1.54-.09,3,.29,5.75-.19,8.82,0,.38.29.77.29,1.15,0,1.24-.1,2.58-.1,3.83s-.09,1.44,1.54,1.44l4.41-.1c.38,0,3.83-.09,4,.2a6.76,6.76,0,0,1,.1,2.2c0,.58-.48,1.06-1.35,1.06a8.15,8.15,0,0,0-2.58-.2c-1.92.1-3.74,0-5.66,0-.19.1-.38.29-.38.39v3a47.91,47.91,0,0,0,0,5.36c.09,1-.39,1.83-.19,2.79a12.66,12.66,0,0,1,.09,2.68,10.76,10.76,0,0,1-.19,3.93,2.08,2.08,0,0,0-.1,1.05c.58,1.92-.09,3.93.58,5.76.29.86-.29,1.43-.1,2.11a2.1,2.1,0,0,1,0,1.72,1.44,1.44,0,0,0,0,1.25c.77,1.34-.09,2.39-.19,3.64-.09.19-.48.38-.19.67.58.48.19,1.15.48,1.72.19.39-.19,1.06-.19,1.54s-.1,1.25.29,1.82c.19.19.09.48,0,.77s0,.67.38.67a46.1,46.1,0,0,0,6.33,0c.38-.09,6.13,0,6.52-.09.86-.2.66,1.34.66,2.29a.83.83,0,0,1-.66,1,20.21,20.21,0,0,1-4.22.39c-3.16,0-2.78-.1-5.94,0-1.06,0-4.51-.58-5.57-.1-.09.1-.28,0-.48,0-1,.19-3-.19-4,.19S515.48,304.3,514.42,304.49Z"/><path class="cls-7" d="M258.59,344.56c-2.44-1-4.17-3.6-5.61-6-.14-.29-.86-.14-1,.14l-.29.72a12.43,12.43,0,0,1-2.16,3.45c-1.15,1.73-.57,2.87-2.59,2.45-.86-.29-2-.72-1.72-1.59.72-2.59.43-7.19.43-9.78a25.52,25.52,0,0,1,.15-4.74c.28-1.58,0-3.45.28-5a2.2,2.2,0,0,0-.14-1.87V322c1-3.88.28-7.76.58-11.64a2,2,0,0,1,1.72-1.87h1.58c1.44,0,2.16-.15,2.3,1.15,0,1.72.14,4.31.29,6,0,2.3,1.29,5.32,1.44,7.76,0,2.59,1.29,4.75,1.87,7.33.43,2,1.72,2.88,2.15,4.89,1.44,1.73,1.87,3.45,3.88,4.6a8.6,8.6,0,0,0,5,1,9.41,9.41,0,0,0,4.31-1.73c2.44-2.15,4.17-3.59,5.18-6.75a31.6,31.6,0,0,0,0-10.36A65.3,65.3,0,0,0,270.53,309c-1.73-2.87-3-5.89-5.18-8.48-.58-2.45-2.59-4.17-3.45-6.33s-2.45-3.88-1.73-5c-1.58,0-3.44-3.16-3.74-4.6.87-.58-1.72-3.6-2.58-5.33-.72-1.43-1.15-3.73-2.73-4.6.57-.28-2.3-5.31-3.46-8.19a20,20,0,0,1-1.29-4.17c-.86-2.59-1-5.46-2.15-8.05a58.91,58.91,0,0,1-.15-7.19,32.36,32.36,0,0,1,1.73-8.77c.14-3.74.86-3.45,2.58-6.62.44-1,1.58-1.29,2.16-2.15,1.87-3.16,4.31-4.75,7.77-6.47a14.87,14.87,0,0,1,6.18-1.44,18.33,18.33,0,0,1,9.05,2.3,6.45,6.45,0,0,1,3,3.16c.44.72.72.72,1.3-.14.72-1.29,1.87-2.45,2.3-3.88,0-.29.14-.43.28-.72a2.07,2.07,0,0,1,2-1,2.14,2.14,0,0,1,1.73,2,5.94,5.94,0,0,1,0,1.58c-.87,3-.72,6-.72,9A28,28,0,0,1,283,240a24.65,24.65,0,0,0-.14,6.46,53.16,53.16,0,0,1-.72,6.91.91.91,0,0,1-.86.72,26.18,26.18,0,0,1-3.31.14c-.57,0-1-.14-1-.86-.15-1.44-.72-5.9-.72-7.48a13.43,13.43,0,0,0-1.15-5.17,3.47,3.47,0,0,1-.15-1.3c.44-4.31-1.29-6-3.16-9.49-1.44-3.16-4.31-4.17-7.62-3.88h-.43c-1.87,1.29-4.17,1.44-5.75,3.16a14.72,14.72,0,0,0-3.74,6.47c-.58,2.3,0,2.45,0,4-.15,4.45-.15,3.31,1,6.61a23.61,23.61,0,0,0,2.73,6.18c1.43,2.74,2.15,3.45,3.73,6l1.3,2.15c.58.86-.29,1.73.86,2s1.72,3.6,2.88,4.6c.72.72,1,2,1.58,3a66.36,66.36,0,0,0,4,6.9,44.08,44.08,0,0,1,4.6,7.91c.57,1.29.72,2.87,2,3.88,1.87,4.16,3,5.75,4,10.35.44,2.16.44,4.46,1.3,6.47a4.51,4.51,0,0,1,.29,2c0,1.3.86,4.17,1,5.47a124.29,124.29,0,0,1,0,12.51c-.15,1.29-1.59,8.48-2.31,9.62-1.29,2.45-2.88,3.6-4.46,6.05l-.86.86c-2.3,2-7,3.3-10.64,3.6a4.85,4.85,0,0,1-2,0A38.84,38.84,0,0,1,258.59,344.56Z"/><path class="cls-7" d="M341.17,345c-2.45-.15-4.89,0-7.19,0-.44,0-.86-.15-1.3-.15-1.29-.14-2-.72-2-2a2.82,2.82,0,0,1,0-1.58c0-.57.29-1,.86-1,2-.14,4-.14,6-.14.86,0,1.15-.29,1.15-1.3,0-5.17,1-11.93.29-16.24v-7.19a11.75,11.75,0,0,0-.29-3.17c-.14-1,.58-2-.14-3-.43-.72,0-1.59.29-2.31.14-.57-.29-1.29-.29-1.87,0-1.43.43-2.73.29-4-.29-1.3,0-2.73-.29-3.88-.29-1.44,1-2.59.14-3.89.43-1.29,0-2.58,0-3.88a3.36,3.36,0,0,1,.43-2.3,2,2,0,0,0,0-1.58c-.57-1-.14-2-.43-3.16-.14-.86.87-1.59.43-2.59-.43-.72.58-1.73-.14-2.59.72-.86-.14-1.73-.14-2.59,0-1.15.57-2.15.14-3.45a10.09,10.09,0,0,1-.14-3.59v-3.6a13.19,13.19,0,0,0-.44-4.74,8.08,8.08,0,0,1-.14-3.17c0-1.72.43-3.45.14-5.17a32,32,0,0,1,0-5.18c0-1.86.15-3.74.15-5.6V234.7c0-1.72.14-3.44.14-5.17a2.86,2.86,0,0,0-.14-1.15.81.81,0,0,0-.72-.86c-.86,0-1.58.57-2.3.57-2.44,0-4.75-.86-5.46,1.44l-1.44,5a13.8,13.8,0,0,0-.72,2.73c-.58,3-2.88,10.78-3.45,14-.15.29-.43-.15-.72,0a.54.54,0,0,1-.43.14c-.72-.29-1.58.15-2.45,0a1.94,1.94,0,0,1-1-1.15c-.29-.43-.29-3.59-.29-4l.14-8.2h-.14c0-2.3.14-3.74.29-6l-.15-2c-.29-2,.29-3.59.29-5.47a1.93,1.93,0,0,1,2.16-2,6,6,0,0,1,2.73.29,4.58,4.58,0,0,0,1.15.29c.86-.43,1.73-.87,2.73-.29.72.43,4.89-.29,5.75-.29,2.3,0,4.6-.43,6.9,0,.29,0,.44.15.72.15a8.08,8.08,0,0,1,4.17,0c1.44.43,3,0,4.46.14h8.48a24,24,0,0,0,3.17-.14,3.17,3.17,0,0,1,2.58,0c1,.43,5.32,0,6.62.14.72.29,1.15,1.58.86,3.88,1,2.73.58,5.61.58,8.34s-.72,5-.15,7.62a13.37,13.37,0,0,1,0,2.45c0,4.6-.57,6-4,6a.8.8,0,0,1-.87-.57,46.18,46.18,0,0,1-1.86-7.76,52.92,52.92,0,0,0-2-7.77c-.72-2.15-1.29-4.45-1.87-6.75a1.2,1.2,0,0,0-1.29-.87c-1.59-.14-2.73.43-4.31-.29-.15-.14-1,.58-1,.87,0,1.72-.43,3.31-.43,5,.14,3.74.43,7.48-.58,11.21,0,.44-.14.87,0,1.16,1.15,3.73.29,7.47.58,11.21,0,1.87-.44,3.74.43,5.46.29.72-.87,1.44-.43,2.3s.28,1.44.14,2.3a7.32,7.32,0,0,0-.14,4.32,13.25,13.25,0,0,1-.29,7.47,13.49,13.49,0,0,0-.15,2.3c1,.58-.42,1.45.15,2a4.75,4.75,0,0,1,.57,2.73c-.14,4-.14,8.05-.14,12.08a149.14,149.14,0,0,0,.29,16,56.67,56.67,0,0,1-.29,13.95c-.14,1,.58,1.58.43,2.58-.14,2.16,0,4.89-.14,7.05v2a1,1,0,0,0,1,1h4.74c1.58.14,1.58,1.58,2,3.3.15.58-.28,1.44-.86,1.44a13.39,13.39,0,0,1-2.45.15h-7.9a5.81,5.81,0,0,0-3.16.43,1.9,1.9,0,0,1-.87.14C345.91,344.56,343.47,345.13,341.17,345Z"/><path class="cls-7" d="M403,345c-1.29-.29-3.31-.72-4.6,0-1.29.57-2.45-.72-2.45-2.3V342a1.57,1.57,0,0,1,.72-1.58,3.51,3.51,0,0,1,2.3-.87c1.87.15,2.16-.43,2.3-1.86.44-3.17.86-7.05,1.58-10.07.58-2.16.29-4.46,1.16-6.61-.29-2.3.43-4.46.86-6.76.43-2,.43-4.17,1-6.19.57-1.72.43-3.59.72-5.46.57-3,.57-6.18,1-9.2.43-3.74,1-7.62,1.58-11.36a52.53,52.53,0,0,0,1.15-8.2c-.14-1.58.58-2.87.58-4.31a7.89,7.89,0,0,1,.57-4c-.14-2.44.86-4.89.86-7.47,0-2.3.87-4.32.72-6.62,1-2.15.58-4.45,1.16-6.61a19,19,0,0,0,.71-3.88,32.33,32.33,0,0,0,1-6.33,13.2,13.2,0,0,1,.43-3.16c.58-2.59.86-5.18,1.44-7.77.29-1.44.58-1.86,1.72-1.86,1.88-.15,3.6-.15,5.47-.15,1.29.15,2,0,2.15,1.58l.72,2.45c-.43,2.87.72,4.6,1.15,7.33.58,3.88,1.15,7.62,1.87,11.36.15,1,.44,2,.58,3a8.3,8.3,0,0,0,.57,2.73c0,.14.15.28.15.43a25.08,25.08,0,0,0,1,7.34,68.35,68.35,0,0,1,1.58,7.32c.28,2.6,1.15,5,1,7.49-.14,1.29.44,2.3.72,3.59.43,2.44,1.3,5,1.3,7.76a8.54,8.54,0,0,0,.28,1.87c.72,3.59,1.58,7.19,2,10.93a4,4,0,0,0,.14,1.87c1.29,3.59,1,7.62,2.16,11.21,0,4,2,11.65,1.72,11.79-.72.43.72,1.59,2,13.09a33.47,33.47,0,0,0,.87,4,.88.88,0,0,0,1.43.58,3.73,3.73,0,0,1,1.3-.14c2.44-.29,2.59,0,2.59,3a2.06,2.06,0,0,1-1.73,2.15,30.26,30.26,0,0,1-8.05.43h-1.72V345H437.4c-1.58-.15-3.16.57-4.45-.29a19.41,19.41,0,0,1-4.89.43,1.81,1.81,0,0,1-1.87-1.87,9,9,0,0,1-.14-2,.69.69,0,0,1,.42-.86,24,24,0,0,1,4.61-.43c.86,0,1.29-.58,1.15-1.58a11.44,11.44,0,0,0-.29-2.16c.29-1.73-.43-2.73-.57-4a11,11,0,0,1-.44-1.87,20.15,20.15,0,0,0-.72-5.89l-.43-2.45c.15-1.87-1.29-4.74-.86-5s-.57-3.45-.86-5c-.15-.72-.43-.86-1-.86-1.58-.72-3,.14-4.17-.29-1.72,0-3.45.14-5.17.14-1.44,0-2.88.43-4.32-.43-.72.43-1.58-.29-2.3.43-.43.29-.72.43-.86,1-.57,3.59-1.29,7-1.58,10.64a61,61,0,0,1-1.59,8.63,5.25,5.25,0,0,1-.28,1.43c-.29,1.87-.43,4.46-.72,6.33a1,1,0,0,0,.86,1,22.29,22.29,0,0,0,3.16-.15c1-.14,1.88-.29,2.59.29.87.86.72,3.3-.14,4.17a11.79,11.79,0,0,1-1.87,1c-1.15-.87-3-.15-4.17.14C405.63,344.41,404.05,345.28,403,345ZM414,305.45h5.19a25.94,25.94,0,0,0,6.61,0c.71-.15,1.15-.58,1-1.3a29.43,29.43,0,0,1-.87-3.88c-.72-2.3-.43-4.74-1.29-6.76-1.15-2.44-1-5.17-1.44-7.91a8.93,8.93,0,0,1-.43-1.86,71.13,71.13,0,0,0-1.29-7.77c-.58-3.3-.72-6.61-1.59-9.78.29-2.73-.86-5.17-.86-7.91a26.78,26.78,0,0,0-.72-4.74c0-.14-.14-.14-.14-.29l-.29.29L417,260.3c-.43,3.88-1.44,7.76-1.44,11.79v.29c-.87,4.17-1.15,8.33-1.87,12.5a35.84,35.84,0,0,0-.72,3.89,26.2,26.2,0,0,1-.43,4.74c-.57,1.58-.29,3.46-.72,5.18-.43,2.16-.29,4.46-.86,6.61,0,.29.43.87.71.72A4.23,4.23,0,0,1,414,305.45Z"/><path class="cls-7" d="M481.73,343.84l-.58-1.44a1.9,1.9,0,0,1,1.59-2.3c1.58-.14,3.3,0,4.88-.14,1.15,0,1.44-.44,1.44-1.3,0-3.45-.72-10.21,0-10.07.14,0,.72-.42.28-1.58s-.28-9.63-.28-13.37c0-.72-.43-1.58.14-2.3.44-.57-.57-6.9-.14-7.33s-.43-2.73,0-2.73c-.29-1.44.28-6.47,0-10.07,0-1.87-.72-2-.43-3.88s-1-5-1.44-6.76c-.72-3-1.29-6.76-2-9.92-1-4.31-2.88-7.33-3.31-12.07a5.64,5.64,0,0,1-.72-1.59c-.29-4.89-1.72-9.63-2.88-14.38A6.17,6.17,0,0,1,478,241a23.5,23.5,0,0,0-.72-4.6c-.43-1.44-.43-2.87-.86-4.31a15.28,15.28,0,0,1-.44-3.6,1.44,1.44,0,0,0-1.86-1,2.93,2.93,0,0,0-1,.43c-2,.14-2.73.29-3.74-2.16-.43-1.44.15-2.73,1.58-2.59,3.45.29,6.91-1.58,10.5-.29,3.74-1.14,6-.14,9.92-.43,1.29-.14,2.59,0,4-.14s3.45-.15,4.6.86c.72.57.43,2,.28,2.59a2,2,0,0,1-1.72,1.44c-1.87.14-3.6.14-5.32.14a.73.73,0,0,0-.72,1c1,3.16,1.44,6.47,2.16,9.78,1,4,1.58,8.19,2.88,12.36a3.25,3.25,0,0,1,0,2.3c-.15.29,0,.58.14,1,1,2.3,1.29,4.89,2.16,7.19a2.94,2.94,0,0,1,.42,1.58c-.28,1.72.58,3.3.58,5,0,1.58.58,2.74,1,4.46l.87,4a26.81,26.81,0,0,0,.72-3.59c.14-2.3,1-4.46.86-6.76A24.84,24.84,0,0,1,505,263c.72-4.6,1.87-9.06,2.59-13.66A89,89,0,0,1,510.2,239a10.08,10.08,0,0,0,.43-2.74,21.12,21.12,0,0,1,.72-6.75c.43-.87-.15-1.58-1.15-1.58h-1.59a3.1,3.1,0,0,1-2.58-2.16,2,2,0,0,1,1.29-2.59c1.29-.14,2.59-.86,3.88-.72,3.46.29,7.05-.43,10.5.43.14,0,.43-.28.72-.28.57-.15,1.87,0,2,.57.29.86-.28,1.58,0,2.3a1.26,1.26,0,0,1-1.15,1.73h-3.16c-3.88.14-3.74-.43-3.88,3.74a6.2,6.2,0,0,1-.15,1.58,42.84,42.84,0,0,0-1.43,7.76,57,57,0,0,1-1.73,8.2,21.7,21.7,0,0,0-.72,3,1.45,1.45,0,0,1-1,1.58c-.28.14-.28.29-.14.57.72.72.43,1.44.43,2.3l-.43,1.16c-.72,2-.29,4.16-1,6.18s-.86,4.17-1.15,6.33c-.29,3.73-1,7.33-1.58,11.06a2.56,2.56,0,0,1-.29.73,3.93,3.93,0,0,0-.58,2.87c.3.72-.42,1.73-.42,2.73a21.4,21.4,0,0,0-.15,3.16c0,5.61-1,15.68,0,16.68.29-1.15.15,2.88-.14,3.46s.57,16,.14,16.82.15,7.76.15,11.64a.9.9,0,0,0,1,1,22.33,22.33,0,0,0,3.17,0c2.15-.14,2.58.15,3.45,1.73.14.43.14,1,.29,1.58,0,.14-.15.57-.29.57-.72.29-1.59.87-2.3.72a5.73,5.73,0,0,0-3.46.15,9.64,9.64,0,0,1-3.59.28H490.78a32.53,32.53,0,0,0-6.46.29A2.4,2.4,0,0,1,481.73,343.84Z"/></g></g></svg>